<?xml version="1.0" encoding="UTF-8"?>
<svg xmlns="http://www.w3.org/2000/svg" xmlns:xlink="http://www.w3.org/1999/xlink" width="20px" height="20px" viewBox="0 0 20 20" version="1.1">
<g id="surface1">
<path style=" stroke:none;fill-rule:nonzero;fill:rgb(37.64706%,83.92157%,65.490198%);fill-opacity:1;" d="M 9.960938 0.0390625 C 11.011719 0.363281 11.910156 1.1875 12.421875 2.144531 C 13.015625 3.300781 13.054688 4.523438 12.671875 5.75 C 12.660156 5.785156 12.644531 5.824219 12.632812 5.863281 C 12.492188 6.292969 12.492188 6.292969 12.578125 6.726562 C 12.660156 6.871094 12.761719 6.964844 12.90625 7.042969 C 13.136719 7.105469 13.316406 7.078125 13.523438 6.964844 C 13.679688 6.851562 13.753906 6.671875 13.789062 6.484375 C 13.792969 6.382812 13.796875 6.28125 13.796875 6.179688 C 13.796875 6.117188 13.796875 6.058594 13.796875 5.996094 C 13.800781 5.902344 13.800781 5.808594 13.800781 5.714844 C 13.800781 5.621094 13.804688 5.53125 13.804688 5.4375 C 13.804688 5.410156 13.804688 5.382812 13.804688 5.351562 C 13.8125 5.136719 13.867188 5.015625 13.984375 4.84375 C 14.128906 4.726562 14.265625 4.695312 14.453125 4.6875 C 14.914062 4.769531 15.320312 5.09375 15.664062 5.390625 C 15.695312 5.417969 15.726562 5.445312 15.761719 5.472656 C 16.726562 6.304688 17.28125 7.527344 17.375 8.785156 C 17.410156 9.394531 17.363281 10.042969 17.1875 10.625 C 17.214844 10.625 17.242188 10.625 17.269531 10.628906 C 17.464844 10.691406 17.570312 10.851562 17.664062 11.027344 C 17.707031 11.128906 17.75 11.230469 17.789062 11.335938 C 17.804688 11.375 17.820312 11.414062 17.835938 11.453125 C 17.886719 11.582031 17.9375 11.710938 17.988281 11.839844 C 18.023438 11.929688 18.058594 12.023438 18.097656 12.113281 C 18.183594 12.328125 18.265625 12.546875 18.351562 12.761719 C 18.511719 13.164062 18.667969 13.570312 18.828125 13.972656 C 18.882812 14.113281 18.9375 14.25 18.992188 14.390625 C 19.234375 15.003906 19.484375 15.621094 19.738281 16.230469 C 19.804688 16.390625 19.871094 16.546875 19.933594 16.707031 C 19.945312 16.734375 19.957031 16.765625 19.972656 16.796875 C 20.039062 16.976562 20.039062 17.15625 20 17.34375 C 19.902344 17.511719 19.796875 17.632812 19.609375 17.695312 C 19.542969 17.699219 19.480469 17.699219 19.414062 17.699219 C 19.375 17.699219 19.332031 17.699219 19.292969 17.699219 C 19.25 17.699219 19.207031 17.699219 19.164062 17.699219 C 19.117188 17.699219 19.074219 17.699219 19.027344 17.699219 C 18.886719 17.699219 18.746094 17.699219 18.605469 17.699219 C 18.511719 17.699219 18.414062 17.699219 18.320312 17.695312 C 18.085938 17.695312 17.851562 17.695312 17.617188 17.695312 C 17.617188 18.070312 17.617188 18.441406 17.617188 18.828125 C 17.75 18.828125 17.878906 18.824219 18.015625 18.824219 C 18.144531 18.824219 18.273438 18.824219 18.402344 18.820312 C 18.488281 18.820312 18.578125 18.820312 18.667969 18.820312 C 18.796875 18.816406 18.921875 18.816406 19.050781 18.816406 C 19.089844 18.816406 19.128906 18.816406 19.171875 18.816406 C 19.421875 18.816406 19.671875 18.828125 19.867188 19.003906 C 20.019531 19.167969 20.027344 19.351562 20.035156 19.5625 C 19.980469 19.765625 19.902344 19.886719 19.726562 20 C 19.472656 20.046875 19.214844 20.042969 18.957031 20.039062 C 18.875 20.039062 18.796875 20.039062 18.714844 20.042969 C 18.496094 20.042969 18.273438 20.042969 18.054688 20.039062 C 17.816406 20.039062 17.578125 20.042969 17.339844 20.042969 C 16.902344 20.042969 16.460938 20.042969 16.023438 20.042969 C 15.617188 20.042969 15.210938 20.042969 14.804688 20.042969 C 14.777344 20.042969 14.75 20.042969 14.722656 20.042969 C 14.613281 20.042969 14.503906 20.042969 14.394531 20.042969 C 13.371094 20.042969 12.347656 20.042969 11.320312 20.039062 C 10.410156 20.039062 9.5 20.039062 8.589844 20.039062 C 7.566406 20.042969 6.542969 20.042969 5.523438 20.042969 C 5.414062 20.042969 5.304688 20.042969 5.195312 20.042969 C 5.167969 20.042969 5.140625 20.042969 5.113281 20.042969 C 4.707031 20.042969 4.300781 20.042969 3.898438 20.042969 C 3.4375 20.042969 2.972656 20.042969 2.511719 20.042969 C 2.277344 20.039062 2.042969 20.039062 1.808594 20.042969 C 1.59375 20.042969 1.375 20.042969 1.160156 20.039062 C 1.082031 20.039062 1.003906 20.039062 0.925781 20.039062 C 0.347656 20.046875 0.347656 20.046875 0.167969 19.933594 C 0.0585938 19.8125 0.0078125 19.71875 -0.03125 19.5625 C -0.0195312 19.328125 -0.0117188 19.164062 0.15625 18.984375 C 0.332031 18.855469 0.484375 18.824219 0.699219 18.824219 C 0.734375 18.824219 0.773438 18.824219 0.8125 18.824219 C 0.851562 18.824219 0.890625 18.824219 0.933594 18.824219 C 0.996094 18.824219 0.996094 18.824219 1.058594 18.824219 C 1.191406 18.824219 1.324219 18.824219 1.453125 18.824219 C 1.542969 18.824219 1.632812 18.824219 1.722656 18.828125 C 1.945312 18.828125 2.164062 18.828125 2.382812 18.828125 C 2.382812 18.453125 2.382812 18.082031 2.382812 17.695312 C 2.242188 17.695312 2.101562 17.699219 1.953125 17.699219 C 1.816406 17.699219 1.679688 17.699219 1.542969 17.703125 C 1.445312 17.703125 1.351562 17.703125 1.257812 17.703125 C 1.121094 17.707031 0.984375 17.707031 0.84375 17.707031 C 0.804688 17.707031 0.761719 17.707031 0.714844 17.707031 C 0.449219 17.707031 0.308594 17.679688 0.109375 17.5 C -0.0195312 17.355469 -0.0234375 17.195312 -0.0195312 17.011719 C 0.0195312 16.734375 0.144531 16.480469 0.253906 16.226562 C 0.300781 16.113281 0.347656 16 0.394531 15.890625 C 0.445312 15.769531 0.496094 15.648438 0.546875 15.53125 C 0.742188 15.070312 0.925781 14.605469 1.113281 14.144531 C 1.128906 14.101562 1.148438 14.058594 1.164062 14.015625 C 1.25 13.800781 1.335938 13.585938 1.421875 13.371094 C 1.496094 13.195312 1.566406 13.019531 1.636719 12.84375 C 1.722656 12.628906 1.8125 12.410156 1.898438 12.195312 C 1.933594 12.113281 1.964844 12.03125 1.996094 11.949219 C 2.042969 11.835938 2.089844 11.726562 2.132812 11.613281 C 2.148438 11.578125 2.160156 11.546875 2.175781 11.511719 C 2.273438 11.257812 2.292969 11.046875 2.222656 10.78125 C 2.214844 10.746094 2.207031 10.710938 2.199219 10.675781 C 2.1875 10.640625 2.179688 10.601562 2.171875 10.566406 C 1.867188 9.371094 1.984375 8.148438 2.605469 7.078125 C 2.851562 6.671875 3.261719 6.003906 3.734375 5.867188 C 3.921875 5.84375 4.089844 5.886719 4.257812 5.976562 C 4.421875 6.128906 4.480469 6.316406 4.5 6.535156 C 4.503906 6.671875 4.507812 6.804688 4.507812 6.941406 C 4.515625 7.210938 4.582031 7.355469 4.773438 7.546875 C 4.941406 7.65625 5.117188 7.714844 5.320312 7.679688 C 5.523438 7.613281 5.671875 7.5 5.785156 7.308594 C 5.863281 7.125 5.851562 6.921875 5.785156 6.734375 C 5.738281 6.632812 5.6875 6.53125 5.636719 6.429688 C 5.398438 5.929688 5.210938 5.402344 5.195312 4.84375 C 5.191406 4.808594 5.191406 4.777344 5.1875 4.742188 C 5.164062 4.035156 5.324219 3.070312 5.796875 2.515625 C 5.917969 2.394531 6.039062 2.347656 6.207031 2.339844 C 6.4375 2.351562 6.546875 2.40625 6.707031 2.566406 C 6.820312 2.699219 6.925781 2.832031 7.03125 2.96875 C 7.082031 3.03125 7.132812 3.09375 7.183594 3.15625 C 7.21875 3.203125 7.21875 3.203125 7.257812 3.25 C 7.390625 3.417969 7.527344 3.585938 7.660156 3.75 C 7.761719 3.871094 7.859375 3.992188 7.949219 4.121094 C 8.085938 4.324219 8.085938 4.324219 8.292969 4.441406 C 8.480469 4.433594 8.625 4.351562 8.757812 4.222656 C 9.273438 3.605469 9.554688 2.796875 9.5 1.992188 C 9.464844 1.660156 9.363281 1.34375 9.226562 1.039062 C 9.136719 0.832031 9.097656 0.65625 9.140625 0.429688 C 9.207031 0.296875 9.207031 0.296875 9.296875 0.195312 C 9.324219 0.164062 9.347656 0.132812 9.375 0.101562 C 9.574219 -0.00390625 9.742188 0 9.960938 0.0390625 Z M 3.59375 17.695312 C 3.59375 18.070312 3.59375 18.441406 3.59375 18.828125 C 4.742188 18.828125 5.886719 18.828125 7.070312 18.828125 C 7.070312 18.453125 7.070312 18.082031 7.070312 17.695312 C 5.921875 17.695312 4.777344 17.695312 3.59375 17.695312 Z M 8.28125 17.695312 C 8.28125 18.070312 8.28125 18.441406 8.28125 18.828125 C 9.414062 18.828125 10.550781 18.828125 11.71875 18.828125 C 11.71875 18.453125 11.71875 18.082031 11.71875 17.695312 C 10.585938 17.695312 9.449219 17.695312 8.28125 17.695312 Z M 12.929688 17.695312 C 12.929688 18.070312 12.929688 18.441406 12.929688 18.828125 C 14.078125 18.828125 15.222656 18.828125 16.40625 18.828125 C 16.40625 18.453125 16.40625 18.082031 16.40625 17.695312 C 15.257812 17.695312 14.113281 17.695312 12.929688 17.695312 Z M 12.929688 17.695312 "/>
<path style=" stroke:none;fill-rule:nonzero;fill:rgb(99.607843%,39.215687%,10.196079%);fill-opacity:1;" d="M 9.960938 0.0390625 C 11.011719 0.363281 11.910156 1.1875 12.421875 2.144531 C 13.015625 3.300781 13.054688 4.523438 12.671875 5.75 C 12.660156 5.785156 12.644531 5.824219 12.632812 5.863281 C 12.492188 6.292969 12.492188 6.292969 12.578125 6.726562 C 12.660156 6.871094 12.761719 6.964844 12.90625 7.042969 C 13.136719 7.105469 13.316406 7.078125 13.523438 6.964844 C 13.679688 6.851562 13.753906 6.671875 13.789062 6.484375 C 13.792969 6.382812 13.796875 6.28125 13.796875 6.179688 C 13.796875 6.117188 13.796875 6.058594 13.796875 5.996094 C 13.800781 5.902344 13.800781 5.808594 13.800781 5.714844 C 13.800781 5.621094 13.804688 5.53125 13.804688 5.4375 C 13.804688 5.410156 13.804688 5.382812 13.804688 5.351562 C 13.8125 5.136719 13.867188 5.015625 13.984375 4.84375 C 14.128906 4.726562 14.265625 4.695312 14.453125 4.6875 C 14.914062 4.769531 15.320312 5.09375 15.664062 5.390625 C 15.695312 5.417969 15.726562 5.445312 15.761719 5.472656 C 16.726562 6.304688 17.28125 7.527344 17.375 8.785156 C 17.410156 9.394531 17.363281 10.042969 17.1875 10.625 C 17.160156 10.625 17.136719 10.628906 17.109375 10.628906 C 17.074219 10.628906 17.042969 10.632812 17.007812 10.632812 C 16.972656 10.636719 16.941406 10.636719 16.90625 10.640625 C 16.761719 10.671875 16.679688 10.730469 16.5625 10.820312 C 16.492188 10.933594 16.492188 10.933594 16.445312 11.066406 C 16.425781 11.113281 16.410156 11.160156 16.390625 11.207031 C 16.371094 11.257812 16.351562 11.308594 16.332031 11.359375 C 16.3125 11.40625 16.292969 11.457031 16.273438 11.507812 C 16.226562 11.628906 16.179688 11.753906 16.132812 11.875 C 16.105469 11.875 16.082031 11.875 16.054688 11.875 C 16.039062 11.835938 16.039062 11.835938 16.023438 11.792969 C 15.925781 11.542969 15.828125 11.292969 15.730469 11.042969 C 15.679688 10.917969 15.628906 10.789062 15.582031 10.660156 C 15.523438 10.511719 15.464844 10.363281 15.40625 10.214844 C 15.386719 10.167969 15.371094 10.125 15.351562 10.078125 C 15.257812 9.835938 15.183594 9.671875 14.960938 9.53125 C 14.800781 9.476562 14.660156 9.472656 14.492188 9.492188 C 14.253906 9.617188 14.148438 9.769531 14.050781 10.011719 C 14.035156 10.054688 14.019531 10.09375 14.003906 10.136719 C 13.984375 10.183594 13.96875 10.226562 13.949219 10.273438 C 13.933594 10.320312 13.914062 10.363281 13.894531 10.410156 C 13.847656 10.53125 13.800781 10.652344 13.753906 10.773438 C 13.703125 10.898438 13.65625 11.023438 13.605469 11.148438 C 13.511719 11.390625 13.414062 11.632812 13.320312 11.875 C 13.292969 11.875 13.269531 11.875 13.242188 11.875 C 13.230469 11.847656 13.21875 11.816406 13.210938 11.789062 C 13.160156 11.660156 13.109375 11.527344 13.058594 11.398438 C 13.042969 11.355469 13.023438 11.308594 13.007812 11.261719 C 12.871094 10.898438 12.871094 10.898438 12.578125 10.664062 C 12.503906 10.65625 12.429688 10.652344 12.351562 10.652344 C 12.3125 10.652344 12.273438 10.648438 12.230469 10.648438 C 12.074219 10.667969 12 10.722656 11.875 10.820312 C 11.804688 10.933594 11.804688 10.933594 11.757812 11.066406 C 11.738281 11.113281 11.722656 11.160156 11.703125 11.207031 C 11.683594 11.257812 11.664062 11.308594 11.644531 11.359375 C 11.625 11.40625 11.605469 11.457031 11.585938 11.507812 C 11.539062 11.628906 11.492188 11.753906 11.445312 11.875 C 11.417969 11.875 11.394531 11.875 11.367188 11.875 C 11.355469 11.847656 11.347656 11.820312 11.335938 11.792969 C 11.238281 11.542969 11.140625 11.292969 11.042969 11.042969 C 10.992188 10.917969 10.941406 10.789062 10.890625 10.660156 C 10.832031 10.511719 10.773438 10.363281 10.714844 10.214844 C 10.695312 10.167969 10.679688 10.125 10.660156 10.078125 C 10.523438 9.722656 10.523438 9.722656 10.234375 9.492188 C 10.160156 9.484375 10.085938 9.480469 10.007812 9.476562 C 9.949219 9.476562 9.949219 9.476562 9.886719 9.472656 C 9.726562 9.5 9.632812 9.566406 9.53125 9.6875 C 9.464844 9.796875 9.421875 9.90625 9.375 10.023438 C 9.359375 10.058594 9.347656 10.09375 9.332031 10.128906 C 9.28125 10.253906 9.230469 10.382812 9.179688 10.507812 C 9.15625 10.566406 9.132812 10.621094 9.109375 10.679688 C 8.949219 11.078125 8.789062 11.476562 8.632812 11.875 C 8.605469 11.875 8.582031 11.875 8.554688 11.875 C 8.492188 11.722656 8.425781 11.570312 8.363281 11.417969 C 8.347656 11.375 8.328125 11.332031 8.308594 11.289062 C 8.292969 11.246094 8.273438 11.203125 8.257812 11.160156 C 8.242188 11.125 8.226562 11.085938 8.207031 11.046875 C 8.179688 10.972656 8.152344 10.902344 8.125 10.828125 C 8.09375 10.734375 8.09375 10.734375 7.992188 10.691406 C 7.746094 10.644531 7.523438 10.601562 7.304688 10.738281 C 7.144531 10.882812 7.078125 11.074219 7 11.269531 C 6.988281 11.304688 6.972656 11.34375 6.957031 11.378906 C 6.914062 11.480469 6.875 11.578125 6.835938 11.679688 C 6.808594 11.746094 6.785156 11.808594 6.757812 11.875 C 6.730469 11.875 6.707031 11.875 6.679688 11.875 C 6.664062 11.835938 6.664062 11.835938 6.648438 11.792969 C 6.550781 11.542969 6.453125 11.292969 6.355469 11.042969 C 6.304688 10.917969 6.253906 10.789062 6.207031 10.660156 C 6.148438 10.511719 6.089844 10.363281 6.03125 10.214844 C 6.011719 10.167969 5.996094 10.125 5.976562 10.078125 C 5.882812 9.835938 5.808594 9.671875 5.585938 9.53125 C 5.425781 9.476562 5.285156 9.472656 5.117188 9.492188 C 4.867188 9.617188 4.777344 9.800781 4.675781 10.050781 C 4.652344 10.113281 4.652344 10.113281 4.628906 10.175781 C 4.601562 10.242188 4.601562 10.242188 4.574219 10.308594 C 4.558594 10.351562 4.539062 10.398438 4.519531 10.441406 C 4.472656 10.5625 4.425781 10.679688 4.378906 10.796875 C 4.328125 10.921875 4.28125 11.042969 4.230469 11.164062 C 4.136719 11.398438 4.039062 11.636719 3.945312 11.875 C 3.917969 11.875 3.894531 11.875 3.867188 11.875 C 3.855469 11.847656 3.84375 11.816406 3.835938 11.789062 C 3.785156 11.660156 3.734375 11.527344 3.683594 11.398438 C 3.667969 11.355469 3.648438 11.308594 3.632812 11.261719 C 3.511719 10.945312 3.511719 10.945312 3.28125 10.703125 C 3.089844 10.640625 2.847656 10.613281 2.660156 10.699219 C 2.511719 10.816406 2.429688 10.96875 2.34375 11.132812 C 2.28125 11.019531 2.246094 10.914062 2.214844 10.792969 C 2.207031 10.757812 2.199219 10.722656 2.191406 10.683594 C 2.183594 10.648438 2.175781 10.613281 2.164062 10.574219 C 2.15625 10.539062 2.148438 10.5 2.140625 10.464844 C 1.859375 9.277344 2.011719 8.054688 2.644531 7.011719 C 3.289062 5.996094 3.289062 5.996094 3.734375 5.867188 C 3.921875 5.84375 4.089844 5.886719 4.257812 5.976562 C 4.421875 6.128906 4.480469 6.316406 4.5 6.535156 C 4.503906 6.671875 4.507812 6.804688 4.507812 6.941406 C 4.515625 7.210938 4.582031 7.355469 4.773438 7.546875 C 4.941406 7.65625 5.117188 7.714844 5.320312 7.679688 C 5.523438 7.613281 5.671875 7.5 5.785156 7.308594 C 5.863281 7.125 5.851562 6.921875 5.785156 6.734375 C 5.738281 6.632812 5.6875 6.53125 5.636719 6.429688 C 5.398438 5.929688 5.210938 5.402344 5.195312 4.84375 C 5.191406 4.808594 5.191406 4.777344 5.1875 4.742188 C 5.164062 4.035156 5.324219 3.070312 5.796875 2.515625 C 5.917969 2.394531 6.039062 2.347656 6.207031 2.339844 C 6.4375 2.351562 6.546875 2.40625 6.707031 2.566406 C 6.820312 2.699219 6.925781 2.832031 7.03125 2.96875 C 7.082031 3.03125 7.132812 3.09375 7.183594 3.15625 C 7.21875 3.203125 7.21875 3.203125 7.257812 3.25 C 7.390625 3.417969 7.527344 3.585938 7.660156 3.75 C 7.761719 3.871094 7.859375 3.992188 7.949219 4.121094 C 8.085938 4.324219 8.085938 4.324219 8.292969 4.441406 C 8.480469 4.433594 8.625 4.351562 8.757812 4.222656 C 9.273438 3.605469 9.554688 2.796875 9.5 1.992188 C 9.464844 1.660156 9.363281 1.34375 9.226562 1.039062 C 9.136719 0.832031 9.097656 0.65625 9.140625 0.429688 C 9.207031 0.296875 9.207031 0.296875 9.296875 0.195312 C 9.324219 0.164062 9.347656 0.132812 9.375 0.101562 C 9.574219 -0.00390625 9.742188 0 9.960938 0.0390625 Z M 9.960938 0.0390625 "/>
<path style=" stroke:none;fill-rule:nonzero;fill:rgb(0%,67.058825%,57.647061%);fill-opacity:1;" d="M 10.234375 9.453125 C 10.511719 9.566406 10.59375 9.84375 10.707031 10.101562 C 10.753906 10.207031 10.792969 10.3125 10.835938 10.417969 C 10.851562 10.457031 10.867188 10.496094 10.882812 10.535156 C 10.914062 10.613281 10.949219 10.695312 10.980469 10.773438 C 11.027344 10.898438 11.078125 11.019531 11.125 11.140625 C 11.15625 11.21875 11.1875 11.296875 11.21875 11.375 C 11.234375 11.414062 11.25 11.449219 11.265625 11.488281 C 11.277344 11.519531 11.292969 11.554688 11.304688 11.589844 C 11.316406 11.617188 11.328125 11.648438 11.34375 11.679688 C 11.367188 11.757812 11.367188 11.757812 11.367188 11.875 C 11.394531 11.875 11.417969 11.875 11.445312 11.875 C 11.453125 11.832031 11.453125 11.832031 11.460938 11.789062 C 11.5 11.601562 11.574219 11.429688 11.644531 11.25 C 11.660156 11.210938 11.675781 11.171875 11.6875 11.132812 C 11.78125 10.898438 11.871094 10.730469 12.109375 10.625 C 12.320312 10.582031 12.515625 10.597656 12.710938 10.679688 C 12.855469 10.824219 12.929688 10.984375 13.007812 11.171875 C 13.019531 11.195312 13.027344 11.21875 13.039062 11.246094 C 13.070312 11.324219 13.105469 11.402344 13.136719 11.480469 C 13.148438 11.507812 13.15625 11.53125 13.167969 11.558594 C 13.214844 11.671875 13.242188 11.753906 13.242188 11.875 C 13.269531 11.875 13.292969 11.875 13.320312 11.875 C 13.328125 11.832031 13.328125 11.832031 13.335938 11.789062 C 13.359375 11.679688 13.390625 11.585938 13.429688 11.480469 C 13.445312 11.445312 13.460938 11.40625 13.476562 11.367188 C 13.542969 11.191406 13.613281 11.015625 13.679688 10.84375 C 13.71875 10.75 13.753906 10.660156 13.789062 10.566406 C 13.839844 10.433594 13.890625 10.300781 13.945312 10.167969 C 13.960938 10.128906 13.976562 10.089844 13.992188 10.046875 C 14.101562 9.773438 14.226562 9.585938 14.492188 9.453125 C 14.714844 9.429688 14.886719 9.445312 15.078125 9.570312 C 15.203125 9.679688 15.265625 9.777344 15.328125 9.933594 C 15.34375 9.972656 15.359375 10.015625 15.378906 10.058594 C 15.402344 10.125 15.402344 10.125 15.429688 10.191406 C 15.457031 10.261719 15.457031 10.261719 15.484375 10.328125 C 15.519531 10.425781 15.558594 10.523438 15.597656 10.617188 C 15.644531 10.742188 15.691406 10.867188 15.742188 10.988281 C 15.789062 11.105469 15.835938 11.222656 15.878906 11.34375 C 15.898438 11.386719 15.914062 11.429688 15.933594 11.476562 C 15.949219 11.515625 15.964844 11.558594 15.980469 11.601562 C 15.996094 11.636719 16.011719 11.671875 16.023438 11.710938 C 16.054688 11.796875 16.054688 11.796875 16.054688 11.875 C 16.082031 11.875 16.105469 11.875 16.132812 11.875 C 16.140625 11.832031 16.140625 11.832031 16.148438 11.789062 C 16.1875 11.601562 16.265625 11.425781 16.335938 11.246094 C 16.351562 11.207031 16.367188 11.171875 16.382812 11.128906 C 16.480469 10.890625 16.558594 10.742188 16.796875 10.625 C 16.878906 10.617188 16.957031 10.609375 17.039062 10.609375 C 17.101562 10.605469 17.101562 10.605469 17.167969 10.601562 C 17.355469 10.632812 17.453125 10.71875 17.578125 10.859375 C 17.652344 10.980469 17.699219 11.109375 17.75 11.242188 C 17.765625 11.277344 17.78125 11.316406 17.796875 11.355469 C 17.847656 11.480469 17.898438 11.605469 17.945312 11.730469 C 17.980469 11.820312 18.015625 11.910156 18.050781 12 C 18.148438 12.234375 18.238281 12.46875 18.332031 12.707031 C 18.425781 12.9375 18.515625 13.171875 18.609375 13.402344 C 18.71875 13.679688 18.828125 13.953125 18.9375 14.226562 C 19.113281 14.675781 19.292969 15.125 19.476562 15.570312 C 19.511719 15.652344 19.546875 15.738281 19.582031 15.824219 C 19.648438 15.980469 19.714844 16.136719 19.78125 16.292969 C 20.085938 17.019531 20.085938 17.019531 20 17.34375 C 19.894531 17.511719 19.796875 17.632812 19.609375 17.695312 C 19.554688 17.699219 19.5 17.699219 19.445312 17.699219 C 19.410156 17.699219 19.378906 17.699219 19.34375 17.699219 C 19.289062 17.699219 19.289062 17.699219 19.230469 17.699219 C 19.171875 17.699219 19.171875 17.699219 19.109375 17.699219 C 18.980469 17.699219 18.847656 17.699219 18.714844 17.699219 C 18.621094 17.699219 18.523438 17.699219 18.429688 17.699219 C 18.226562 17.699219 18.023438 17.699219 17.816406 17.699219 C 17.523438 17.699219 17.226562 17.699219 16.933594 17.699219 C 16.453125 17.699219 15.972656 17.699219 15.496094 17.699219 C 15.03125 17.699219 14.5625 17.699219 14.097656 17.699219 C 14.070312 17.699219 14.042969 17.699219 14.011719 17.699219 C 13.867188 17.699219 13.722656 17.699219 13.582031 17.699219 C 12.386719 17.695312 11.195312 17.695312 10 17.695312 C 10 17.667969 10 17.640625 10 17.613281 C 10 17.351562 10 17.089844 9.996094 16.832031 C 9.996094 16.695312 9.996094 16.5625 9.996094 16.429688 C 9.996094 15.585938 9.886719 14.964844 9.507812 14.214844 C 9.324219 13.847656 9.175781 13.464844 9.019531 13.085938 C 8.964844 12.949219 8.90625 12.8125 8.847656 12.679688 C 8.8125 12.59375 8.777344 12.511719 8.742188 12.425781 C 8.726562 12.386719 8.707031 12.351562 8.691406 12.3125 C 8.578125 12.035156 8.597656 11.875 8.710938 11.601562 C 8.734375 11.535156 8.761719 11.46875 8.785156 11.398438 C 8.8125 11.328125 8.84375 11.257812 8.871094 11.1875 C 8.886719 11.148438 8.902344 11.109375 8.917969 11.070312 C 8.949219 10.992188 8.980469 10.914062 9.011719 10.832031 C 9.058594 10.710938 9.109375 10.589844 9.15625 10.46875 C 9.1875 10.390625 9.21875 10.316406 9.25 10.238281 C 9.261719 10.203125 9.277344 10.164062 9.292969 10.128906 C 9.484375 9.648438 9.675781 9.382812 10.234375 9.453125 Z M 10.234375 9.453125 "/>
<path style=" stroke:none;fill-rule:nonzero;fill:rgb(93.725491%,21.960784%,0%);fill-opacity:1;" d="M 10 0.117188 C 10.265625 0.160156 10.265625 0.160156 10.378906 0.21875 C 10.402344 0.230469 10.429688 0.242188 10.457031 0.253906 C 10.480469 0.269531 10.507812 0.28125 10.535156 0.296875 C 10.5625 0.308594 10.589844 0.324219 10.617188 0.335938 C 11.648438 0.875 12.394531 1.824219 12.746094 2.921875 C 13.035156 3.925781 12.957031 4.878906 12.632812 5.863281 C 12.492188 6.292969 12.492188 6.292969 12.578125 6.726562 C 12.660156 6.871094 12.761719 6.964844 12.90625 7.042969 C 13.136719 7.105469 13.316406 7.078125 13.523438 6.964844 C 13.679688 6.851562 13.753906 6.671875 13.789062 6.484375 C 13.792969 6.382812 13.796875 6.28125 13.796875 6.179688 C 13.796875 6.117188 13.796875 6.058594 13.796875 5.996094 C 13.800781 5.902344 13.800781 5.808594 13.800781 5.714844 C 13.800781 5.621094 13.804688 5.53125 13.804688 5.4375 C 13.804688 5.410156 13.804688 5.382812 13.804688 5.351562 C 13.8125 5.136719 13.867188 5.015625 13.984375 4.84375 C 14.128906 4.726562 14.265625 4.695312 14.453125 4.6875 C 14.914062 4.769531 15.320312 5.09375 15.664062 5.390625 C 15.710938 5.429688 15.710938 5.429688 15.761719 5.472656 C 16.726562 6.304688 17.28125 7.527344 17.375 8.785156 C 17.410156 9.394531 17.363281 10.042969 17.1875 10.625 C 17.160156 10.625 17.136719 10.628906 17.109375 10.628906 C 17.074219 10.628906 17.042969 10.632812 17.007812 10.632812 C 16.972656 10.636719 16.941406 10.636719 16.90625 10.640625 C 16.761719 10.671875 16.679688 10.730469 16.5625 10.820312 C 16.492188 10.933594 16.492188 10.933594 16.445312 11.066406 C 16.425781 11.113281 16.410156 11.160156 16.390625 11.207031 C 16.371094 11.257812 16.351562 11.308594 16.332031 11.359375 C 16.3125 11.40625 16.292969 11.457031 16.273438 11.507812 C 16.226562 11.628906 16.179688 11.753906 16.132812 11.875 C 16.105469 11.875 16.082031 11.875 16.054688 11.875 C 16.042969 11.847656 16.035156 11.820312 16.023438 11.792969 C 15.925781 11.542969 15.828125 11.292969 15.730469 11.042969 C 15.679688 10.917969 15.628906 10.789062 15.582031 10.660156 C 15.523438 10.511719 15.464844 10.363281 15.40625 10.214844 C 15.386719 10.167969 15.371094 10.125 15.351562 10.078125 C 15.257812 9.835938 15.183594 9.671875 14.960938 9.53125 C 14.800781 9.476562 14.660156 9.472656 14.492188 9.492188 C 14.253906 9.617188 14.148438 9.769531 14.050781 10.011719 C 14.035156 10.054688 14.019531 10.09375 14.003906 10.136719 C 13.984375 10.183594 13.96875 10.226562 13.949219 10.273438 C 13.933594 10.320312 13.914062 10.363281 13.894531 10.410156 C 13.847656 10.53125 13.800781 10.652344 13.753906 10.773438 C 13.703125 10.898438 13.65625 11.023438 13.605469 11.148438 C 13.511719 11.390625 13.414062 11.632812 13.320312 11.875 C 13.292969 11.875 13.269531 11.875 13.242188 11.875 C 13.226562 11.832031 13.226562 11.832031 13.210938 11.789062 C 13.160156 11.660156 13.109375 11.527344 13.058594 11.398438 C 13.042969 11.355469 13.023438 11.308594 13.007812 11.261719 C 12.871094 10.898438 12.871094 10.898438 12.578125 10.664062 C 12.503906 10.65625 12.429688 10.652344 12.351562 10.652344 C 12.3125 10.652344 12.273438 10.648438 12.230469 10.648438 C 12.074219 10.667969 12 10.722656 11.875 10.820312 C 11.804688 10.933594 11.804688 10.933594 11.757812 11.066406 C 11.738281 11.113281 11.722656 11.160156 11.703125 11.207031 C 11.683594 11.257812 11.664062 11.308594 11.644531 11.359375 C 11.625 11.40625 11.605469 11.457031 11.585938 11.507812 C 11.539062 11.628906 11.492188 11.753906 11.445312 11.875 C 11.417969 11.875 11.394531 11.875 11.367188 11.875 C 11.351562 11.835938 11.351562 11.835938 11.335938 11.792969 C 11.238281 11.542969 11.140625 11.292969 11.042969 11.042969 C 10.992188 10.917969 10.941406 10.789062 10.890625 10.660156 C 10.832031 10.511719 10.773438 10.363281 10.714844 10.214844 C 10.695312 10.167969 10.679688 10.125 10.660156 10.078125 C 10.542969 9.765625 10.542969 9.765625 10.3125 9.53125 C 10.210938 9.492188 10.105469 9.453125 10 9.414062 C 10 6.347656 10 3.277344 10 0.117188 Z M 10 0.117188 "/>
<path style=" stroke:none;fill-rule:nonzero;fill:rgb(53.333336%,36.470589%,23.137255%);fill-opacity:1;" d="M 2.382812 17.695312 C 2.78125 17.695312 3.183594 17.695312 3.59375 17.695312 C 3.59375 18.070312 3.59375 18.441406 3.59375 18.828125 C 4.742188 18.828125 5.886719 18.828125 7.070312 18.828125 C 7.070312 18.453125 7.070312 18.082031 7.070312 17.695312 C 7.46875 17.695312 7.871094 17.695312 8.28125 17.695312 C 8.28125 18.070312 8.28125 18.441406 8.28125 18.828125 C 9.414062 18.828125 10.550781 18.828125 11.71875 18.828125 C 11.71875 18.453125 11.71875 18.082031 11.71875 17.695312 C 12.117188 17.695312 12.519531 17.695312 12.929688 17.695312 C 12.929688 18.070312 12.929688 18.441406 12.929688 18.828125 C 14.078125 18.828125 15.222656 18.828125 16.40625 18.828125 C 16.40625 18.453125 16.40625 18.082031 16.40625 17.695312 C 16.804688 17.695312 17.207031 17.695312 17.617188 17.695312 C 17.617188 18.070312 17.617188 18.441406 17.617188 18.828125 C 17.75 18.828125 17.878906 18.824219 18.015625 18.824219 C 18.144531 18.824219 18.273438 18.824219 18.402344 18.820312 C 18.488281 18.820312 18.578125 18.820312 18.667969 18.820312 C 18.796875 18.816406 18.921875 18.816406 19.050781 18.816406 C 19.089844 18.816406 19.128906 18.816406 19.171875 18.816406 C 19.421875 18.816406 19.671875 18.828125 19.867188 19.003906 C 20.019531 19.167969 20.027344 19.351562 20.035156 19.5625 C 19.980469 19.765625 19.902344 19.886719 19.726562 20 C 19.472656 20.046875 19.214844 20.042969 18.957031 20.039062 C 18.875 20.039062 18.796875 20.039062 18.714844 20.042969 C 18.496094 20.042969 18.273438 20.042969 18.054688 20.039062 C 17.816406 20.039062 17.578125 20.042969 17.339844 20.042969 C 16.902344 20.042969 16.460938 20.042969 16.023438 20.042969 C 15.617188 20.042969 15.210938 20.042969 14.804688 20.042969 C 14.765625 20.042969 14.765625 20.042969 14.722656 20.042969 C 14.613281 20.042969 14.503906 20.042969 14.394531 20.042969 C 13.371094 20.042969 12.347656 20.042969 11.320312 20.039062 C 10.410156 20.039062 9.5 20.039062 8.589844 20.039062 C 7.566406 20.042969 6.542969 20.042969 5.523438 20.042969 C 5.414062 20.042969 5.304688 20.042969 5.195312 20.042969 C 5.167969 20.042969 5.140625 20.042969 5.113281 20.042969 C 4.707031 20.042969 4.300781 20.042969 3.898438 20.042969 C 3.4375 20.042969 2.972656 20.042969 2.511719 20.042969 C 2.277344 20.039062 2.042969 20.039062 1.808594 20.042969 C 1.59375 20.042969 1.375 20.042969 1.160156 20.039062 C 1.082031 20.039062 1.003906 20.039062 0.925781 20.039062 C 0.347656 20.046875 0.347656 20.046875 0.167969 19.933594 C 0.0585938 19.8125 0.0078125 19.71875 -0.03125 19.5625 C -0.0195312 19.328125 -0.0117188 19.164062 0.15625 18.984375 C 0.332031 18.855469 0.484375 18.824219 0.699219 18.824219 C 0.734375 18.824219 0.773438 18.824219 0.8125 18.824219 C 0.851562 18.824219 0.890625 18.824219 0.933594 18.824219 C 0.996094 18.824219 0.996094 18.824219 1.058594 18.824219 C 1.191406 18.824219 1.324219 18.824219 1.453125 18.824219 C 1.542969 18.824219 1.632812 18.824219 1.722656 18.828125 C 1.945312 18.828125 2.164062 18.828125 2.382812 18.828125 C 2.382812 18.453125 2.382812 18.082031 2.382812 17.695312 Z M 2.382812 17.695312 "/>
<path style=" stroke:none;fill-rule:nonzero;fill:rgb(44.313726%,29.803923%,18.431373%);fill-opacity:1;" d="M 11.71875 17.695312 C 12.117188 17.695312 12.519531 17.695312 12.929688 17.695312 C 12.929688 18.070312 12.929688 18.441406 12.929688 18.828125 C 14.078125 18.828125 15.222656 18.828125 16.40625 18.828125 C 16.40625 18.453125 16.40625 18.082031 16.40625 17.695312 C 16.804688 17.695312 17.207031 17.695312 17.617188 17.695312 C 17.617188 18.070312 17.617188 18.441406 17.617188 18.828125 C 17.75 18.828125 17.878906 18.824219 18.015625 18.824219 C 18.144531 18.824219 18.273438 18.824219 18.402344 18.820312 C 18.488281 18.820312 18.578125 18.820312 18.667969 18.820312 C 18.796875 18.816406 18.921875 18.816406 19.050781 18.816406 C 19.089844 18.816406 19.128906 18.816406 19.171875 18.816406 C 19.421875 18.816406 19.671875 18.828125 19.867188 19.003906 C 20.019531 19.167969 20.027344 19.351562 20.035156 19.5625 C 19.980469 19.753906 19.878906 19.878906 19.726562 20 C 19.589844 20.042969 19.464844 20.042969 19.324219 20.039062 C 19.285156 20.039062 19.246094 20.039062 19.203125 20.039062 C 19.070312 20.039062 18.9375 20.039062 18.800781 20.035156 C 18.707031 20.035156 18.609375 20.035156 18.515625 20.035156 C 18.308594 20.035156 18.101562 20.035156 17.894531 20.03125 C 17.597656 20.03125 17.300781 20.03125 17 20.027344 C 16.519531 20.027344 16.035156 20.027344 15.550781 20.023438 C 15.082031 20.019531 14.609375 20.019531 14.140625 20.015625 C 14.113281 20.015625 14.082031 20.015625 14.054688 20.015625 C 13.90625 20.015625 13.761719 20.015625 13.617188 20.015625 C 12.410156 20.011719 11.207031 20.007812 10 20 C 10 19.613281 10 19.226562 10 18.828125 C 10.566406 18.828125 11.132812 18.828125 11.71875 18.828125 C 11.71875 18.453125 11.71875 18.082031 11.71875 17.695312 Z M 11.71875 17.695312 "/>
<path style=" stroke:none;fill-rule:nonzero;fill:rgb(0%,66.666669%,57.647061%);fill-opacity:1;" d="M 5.46875 9.453125 C 5.667969 9.527344 5.808594 9.632812 5.910156 9.824219 C 5.921875 9.859375 5.9375 9.894531 5.953125 9.929688 C 5.96875 9.972656 5.984375 10.011719 6 10.054688 C 6.027344 10.121094 6.027344 10.121094 6.050781 10.1875 C 6.070312 10.234375 6.089844 10.277344 6.105469 10.324219 C 6.152344 10.445312 6.203125 10.566406 6.25 10.6875 C 6.296875 10.808594 6.34375 10.929688 6.390625 11.050781 C 6.429688 11.144531 6.464844 11.238281 6.5 11.332031 C 6.519531 11.375 6.535156 11.417969 6.554688 11.464844 C 6.570312 11.503906 6.585938 11.546875 6.601562 11.585938 C 6.625 11.640625 6.625 11.640625 6.644531 11.695312 C 6.722656 11.917969 6.722656 12.023438 6.632812 12.242188 C 6.621094 12.265625 6.613281 12.289062 6.601562 12.316406 C 6.570312 12.394531 6.535156 12.476562 6.503906 12.554688 C 6.480469 12.613281 6.457031 12.667969 6.433594 12.726562 C 6.375 12.875 6.3125 13.023438 6.25 13.171875 C 6.191406 13.320312 6.128906 13.472656 6.066406 13.621094 C 5.988281 13.820312 5.90625 14.019531 5.824219 14.222656 C 5.664062 14.609375 5.507812 15 5.351562 15.390625 C 5.324219 15.390625 5.300781 15.390625 5.273438 15.390625 C 5.253906 15.347656 5.238281 15.300781 5.21875 15.253906 C 5.164062 15.121094 5.109375 14.984375 5.058594 14.847656 C 4.992188 14.691406 4.929688 14.535156 4.867188 14.375 C 4.707031 13.96875 4.542969 13.566406 4.371094 13.164062 C 4.324219 13.054688 4.277344 12.945312 4.230469 12.832031 C 4.203125 12.761719 4.171875 12.691406 4.140625 12.621094 C 4.097656 12.523438 4.054688 12.425781 4.015625 12.328125 C 4.003906 12.300781 3.988281 12.269531 3.976562 12.242188 C 3.878906 12 3.929688 11.839844 4.023438 11.601562 C 4.035156 11.566406 4.046875 11.53125 4.0625 11.496094 C 4.148438 11.257812 4.242188 11.019531 4.335938 10.785156 C 4.367188 10.699219 4.402344 10.609375 4.433594 10.523438 C 4.480469 10.398438 4.53125 10.273438 4.582031 10.144531 C 4.59375 10.105469 4.609375 10.070312 4.625 10.027344 C 4.789062 9.621094 5.019531 9.410156 5.46875 9.453125 Z M 5.46875 9.453125 "/>
<path style=" stroke:none;fill-rule:nonzero;fill:rgb(0.392157%,56.470591%,51.372552%);fill-opacity:1;" d="M 14.84375 9.453125 C 15.042969 9.527344 15.1875 9.632812 15.285156 9.824219 C 15.304688 9.878906 15.304688 9.878906 15.328125 9.933594 C 15.351562 9.996094 15.351562 9.996094 15.378906 10.058594 C 15.402344 10.125 15.402344 10.125 15.429688 10.191406 C 15.445312 10.238281 15.464844 10.28125 15.484375 10.328125 C 15.519531 10.425781 15.558594 10.523438 15.597656 10.617188 C 15.644531 10.742188 15.691406 10.867188 15.742188 10.988281 C 15.789062 11.105469 15.835938 11.222656 15.878906 11.34375 C 15.898438 11.386719 15.914062 11.429688 15.933594 11.476562 C 15.949219 11.515625 15.964844 11.558594 15.980469 11.601562 C 15.996094 11.636719 16.011719 11.671875 16.023438 11.710938 C 16.054688 11.796875 16.054688 11.796875 16.054688 11.875 C 16.082031 11.886719 16.105469 11.902344 16.132812 11.914062 C 16.109375 11.957031 16.085938 12.003906 16.0625 12.050781 C 15.980469 12.214844 15.910156 12.378906 15.84375 12.550781 C 15.832031 12.578125 15.820312 12.609375 15.808594 12.640625 C 15.765625 12.742188 15.726562 12.839844 15.6875 12.941406 C 15.660156 13.011719 15.632812 13.078125 15.605469 13.148438 C 15.53125 13.332031 15.460938 13.515625 15.386719 13.695312 C 15.3125 13.882812 15.238281 14.070312 15.164062 14.257812 C 15.015625 14.621094 14.871094 14.984375 14.726562 15.351562 C 14.699219 15.351562 14.675781 15.351562 14.648438 15.351562 C 14.515625 15.023438 14.382812 14.695312 14.253906 14.367188 C 14.191406 14.214844 14.128906 14.0625 14.066406 13.910156 C 13.996094 13.734375 13.925781 13.558594 13.855469 13.382812 C 13.84375 13.355469 13.832031 13.324219 13.820312 13.296875 C 13.667969 12.921875 13.515625 12.546875 13.367188 12.167969 C 13.308594 12.019531 13.308594 12.019531 13.242188 11.875 C 13.269531 11.875 13.292969 11.875 13.320312 11.875 C 13.328125 11.832031 13.328125 11.832031 13.335938 11.789062 C 13.359375 11.679688 13.390625 11.585938 13.429688 11.480469 C 13.445312 11.445312 13.460938 11.40625 13.476562 11.367188 C 13.542969 11.191406 13.613281 11.015625 13.679688 10.84375 C 13.71875 10.75 13.753906 10.660156 13.789062 10.566406 C 13.839844 10.433594 13.890625 10.300781 13.945312 10.167969 C 13.960938 10.128906 13.976562 10.089844 13.992188 10.046875 C 14.160156 9.628906 14.386719 9.410156 14.84375 9.453125 Z M 14.84375 9.453125 "/>
<path style=" stroke:none;fill-rule:nonzero;fill:rgb(0%,56.470591%,51.372552%);fill-opacity:1;" d="M 10 9.453125 C 10.292969 9.453125 10.292969 9.453125 10.46875 9.609375 C 10.621094 9.863281 10.726562 10.144531 10.835938 10.417969 C 10.851562 10.457031 10.867188 10.496094 10.882812 10.535156 C 10.914062 10.613281 10.949219 10.695312 10.980469 10.773438 C 11.027344 10.898438 11.078125 11.019531 11.125 11.140625 C 11.15625 11.21875 11.1875 11.296875 11.21875 11.375 C 11.234375 11.414062 11.25 11.449219 11.265625 11.488281 C 11.277344 11.519531 11.292969 11.554688 11.304688 11.589844 C 11.316406 11.617188 11.328125 11.648438 11.34375 11.679688 C 11.367188 11.757812 11.367188 11.757812 11.367188 11.875 C 11.40625 11.894531 11.40625 11.894531 11.445312 11.914062 C 11.421875 11.957031 11.398438 12.003906 11.375 12.050781 C 11.292969 12.214844 11.222656 12.378906 11.15625 12.550781 C 11.144531 12.578125 11.132812 12.609375 11.121094 12.640625 C 11.078125 12.742188 11.039062 12.839844 11 12.941406 C 10.972656 13.011719 10.945312 13.078125 10.917969 13.148438 C 10.84375 13.332031 10.773438 13.515625 10.699219 13.695312 C 10.625 13.882812 10.550781 14.070312 10.476562 14.257812 C 10.328125 14.621094 10.183594 14.984375 10.039062 15.351562 C 10.027344 15.351562 10.011719 15.351562 10 15.351562 C 10 13.40625 10 11.457031 10 9.453125 Z M 10 9.453125 "/>
<path style=" stroke:none;fill-rule:nonzero;fill:rgb(32.156864%,20.392157%,13.333334%);fill-opacity:1;" d="M 16.40625 17.695312 C 16.804688 17.695312 17.207031 17.695312 17.617188 17.695312 C 17.617188 18.082031 17.617188 18.46875 17.617188 18.867188 C 17.425781 18.867188 17.230469 18.867188 17.035156 18.871094 C 16.941406 18.871094 16.941406 18.871094 16.847656 18.871094 C 16.777344 18.871094 16.777344 18.871094 16.707031 18.871094 C 16.65625 18.871094 16.609375 18.871094 16.558594 18.871094 C 16.445312 18.867188 16.445312 18.867188 16.40625 18.828125 C 16.402344 18.746094 16.402344 18.660156 16.402344 18.578125 C 16.402344 18.53125 16.402344 18.484375 16.402344 18.4375 C 16.402344 18.378906 16.402344 18.320312 16.402344 18.257812 C 16.40625 18.074219 16.40625 17.886719 16.40625 17.695312 Z M 16.40625 17.695312 "/>
<path style=" stroke:none;fill-rule:nonzero;fill:rgb(32.549021%,20%,12.941177%);fill-opacity:1;" d="M 11.71875 17.695312 C 12.117188 17.695312 12.519531 17.695312 12.929688 17.695312 C 12.929688 18.082031 12.929688 18.46875 12.929688 18.867188 C 12.738281 18.867188 12.542969 18.867188 12.347656 18.871094 C 12.253906 18.871094 12.253906 18.871094 12.160156 18.871094 C 12.089844 18.871094 12.089844 18.871094 12.019531 18.871094 C 11.96875 18.871094 11.921875 18.871094 11.871094 18.871094 C 11.757812 18.867188 11.757812 18.867188 11.71875 18.828125 C 11.714844 18.746094 11.714844 18.660156 11.714844 18.578125 C 11.714844 18.53125 11.714844 18.484375 11.714844 18.4375 C 11.714844 18.378906 11.714844 18.320312 11.714844 18.257812 C 11.71875 18.074219 11.71875 17.886719 11.71875 17.695312 Z M 11.71875 17.695312 "/>
<path style=" stroke:none;fill-rule:nonzero;fill:rgb(43.921569%,29.411766%,18.039216%);fill-opacity:1;" d="M 2.382812 17.695312 C 2.78125 17.695312 3.183594 17.695312 3.59375 17.695312 C 3.59375 17.882812 3.59375 18.066406 3.597656 18.257812 C 3.597656 18.316406 3.597656 18.375 3.597656 18.4375 C 3.597656 18.484375 3.597656 18.527344 3.597656 18.578125 C 3.597656 18.648438 3.597656 18.648438 3.597656 18.71875 C 3.59375 18.828125 3.59375 18.828125 3.554688 18.867188 C 3.46875 18.871094 3.382812 18.871094 3.292969 18.871094 C 3.246094 18.871094 3.199219 18.871094 3.152344 18.871094 C 3.089844 18.871094 3.027344 18.871094 2.964844 18.871094 C 2.773438 18.867188 2.582031 18.867188 2.382812 18.867188 C 2.382812 18.480469 2.382812 18.09375 2.382812 17.695312 Z M 2.382812 17.695312 "/>
<path style=" stroke:none;fill-rule:nonzero;fill:rgb(44.313726%,29.803923%,18.431373%);fill-opacity:1;" d="M 7.070312 17.695312 C 7.457031 17.695312 7.84375 17.695312 8.242188 17.695312 C 8.242188 18.082031 8.242188 18.46875 8.242188 18.867188 C 7.855469 18.867188 7.46875 18.867188 7.070312 18.867188 C 7.070312 18.480469 7.070312 18.09375 7.070312 17.695312 Z M 7.070312 17.695312 "/>
</g>
</svg>
