<svg xmlns="http://www.w3.org/2000/svg" width="20px" height="20px" viewBox="0 0 20 20" fill="none">
<path style=" stroke:none;fill-rule:nonzero;fill:rgb(100%,100%,100%);fill-opacity:1;" d="M 3.03125 -0.0078125 C 3.078125 -0.0078125 3.078125 -0.0078125 3.125 -0.0078125 C 3.222656 -0.0078125 3.324219 -0.0078125 3.421875 -0.0078125 C 3.492188 -0.0078125 3.566406 -0.0078125 3.636719 -0.0117188 C 3.871094 -0.0117188 4.105469 -0.0117188 4.339844 -0.0117188 C 4.378906 -0.0117188 4.421875 -0.015625 4.460938 -0.015625 C 4.839844 -0.015625 5.214844 -0.015625 5.589844 -0.015625 C 6.074219 -0.0195312 6.554688 -0.0195312 7.035156 -0.0234375 C 7.375 -0.0273438 7.714844 -0.0273438 8.050781 -0.0273438 C 8.253906 -0.0273438 8.457031 -0.0273438 8.660156 -0.03125 C 8.847656 -0.03125 9.039062 -0.03125 9.230469 -0.03125 C 9.300781 -0.03125 9.371094 -0.03125 9.4375 -0.03125 C 10.03125 -0.0429688 10.03125 -0.0429688 10.230469 0.132812 C 10.273438 0.175781 10.3125 0.226562 10.351562 0.273438 C 10.390625 0.3125 10.433594 0.351562 10.476562 0.390625 C 10.511719 0.429688 10.550781 0.46875 10.589844 0.503906 C 10.609375 0.527344 10.628906 0.546875 10.648438 0.566406 C 10.777344 0.695312 10.898438 0.832031 11.015625 0.96875 C 11.121094 1.085938 11.234375 1.199219 11.347656 1.308594 C 11.503906 1.464844 11.65625 1.621094 11.800781 1.789062 C 11.90625 1.90625 12.015625 2.019531 12.128906 2.128906 C 12.285156 2.285156 12.4375 2.441406 12.582031 2.609375 C 12.6875 2.726562 12.796875 2.839844 12.910156 2.949219 C 13.066406 3.105469 13.21875 3.261719 13.363281 3.429688 C 13.46875 3.546875 13.578125 3.660156 13.691406 3.769531 C 14.011719 4.085938 14.011719 4.085938 14.152344 4.257812 C 14.214844 4.339844 14.214844 4.339844 14.296875 4.394531 C 14.460938 4.53125 14.535156 4.660156 14.558594 4.871094 C 14.570312 5.109375 14.566406 5.347656 14.5625 5.585938 C 14.5625 5.671875 14.5625 5.761719 14.558594 5.847656 C 14.558594 6.078125 14.554688 6.308594 14.550781 6.539062 C 14.550781 6.777344 14.546875 7.011719 14.546875 7.246094 C 14.542969 7.710938 14.539062 8.171875 14.53125 8.632812 C 14.574219 8.644531 14.617188 8.652344 14.660156 8.664062 C 14.714844 8.679688 14.773438 8.691406 14.828125 8.707031 C 14.871094 8.714844 14.871094 8.714844 14.910156 8.726562 C 16.339844 9.078125 17.578125 10.085938 18.332031 11.332031 C 18.859375 12.230469 19.109375 13.214844 19.109375 14.253906 C 19.113281 14.28125 19.113281 14.308594 19.113281 14.335938 C 19.109375 14.75 19.085938 15.140625 18.984375 15.546875 C 18.972656 15.59375 18.960938 15.640625 18.949219 15.691406 C 18.53125 17.242188 17.554688 18.476562 16.1875 19.300781 C 15.320312 19.792969 14.363281 20.015625 13.367188 20.011719 C 13.324219 20.011719 13.324219 20.011719 13.28125 20.011719 C 12.851562 20.011719 12.445312 19.992188 12.03125 19.882812 C 12.003906 19.875 11.980469 19.871094 11.953125 19.863281 C 10.535156 19.507812 9.332031 18.628906 8.515625 17.421875 C 8.488281 17.371094 8.464844 17.316406 8.4375 17.265625 C 8.394531 17.265625 8.394531 17.265625 8.351562 17.265625 C 7.648438 17.261719 6.945312 17.261719 6.246094 17.257812 C 5.90625 17.253906 5.566406 17.253906 5.226562 17.253906 C 4.929688 17.25 4.632812 17.25 4.335938 17.25 C 4.179688 17.246094 4.023438 17.246094 3.867188 17.246094 C 3.71875 17.246094 3.574219 17.246094 3.425781 17.242188 C 3.34375 17.242188 3.265625 17.242188 3.1875 17.242188 C 2.570312 17.238281 1.972656 17.042969 1.523438 16.609375 C 1.046875 16.085938 0.886719 15.53125 0.886719 14.84375 C 0.886719 14.785156 0.886719 14.730469 0.886719 14.675781 C 0.886719 14.523438 0.886719 14.367188 0.886719 14.214844 C 0.886719 14.050781 0.886719 13.886719 0.886719 13.71875 C 0.886719 13.398438 0.886719 13.074219 0.886719 12.75 C 0.886719 12.488281 0.886719 12.226562 0.886719 11.960938 C 0.882812 11.21875 0.882812 10.472656 0.882812 9.726562 C 0.882812 9.683594 0.882812 9.644531 0.882812 9.605469 C 0.882812 9.5625 0.882812 9.523438 0.882812 9.480469 C 0.882812 8.832031 0.882812 8.179688 0.882812 7.527344 C 0.882812 6.855469 0.878906 6.1875 0.878906 5.519531 C 0.878906 5.140625 0.878906 4.765625 0.878906 4.390625 C 0.878906 4.070312 0.878906 3.75 0.878906 3.429688 C 0.878906 3.265625 0.878906 3.105469 0.878906 2.941406 C 0.878906 2.792969 0.878906 2.640625 0.878906 2.492188 C 0.878906 2.414062 0.878906 2.332031 0.878906 2.253906 C 0.882812 1.617188 1.105469 1.0625 1.546875 0.597656 C 1.960938 0.203125 2.464844 -0.00390625 3.03125 -0.0078125 Z M 2.109375 1.289062 C 1.796875 1.695312 1.746094 2.023438 1.746094 2.523438 C 1.746094 2.578125 1.746094 2.632812 1.746094 2.6875 C 1.746094 2.839844 1.746094 2.988281 1.746094 3.136719 C 1.746094 3.296875 1.746094 3.460938 1.746094 3.621094 C 1.746094 3.9375 1.746094 4.253906 1.746094 4.570312 C 1.746094 4.828125 1.746094 5.082031 1.746094 5.339844 C 1.742188 6.070312 1.742188 6.800781 1.742188 7.527344 C 1.742188 7.566406 1.742188 7.605469 1.742188 7.648438 C 1.742188 7.6875 1.742188 7.726562 1.742188 7.765625 C 1.742188 8.402344 1.742188 9.039062 1.742188 9.679688 C 1.742188 10.332031 1.738281 10.988281 1.738281 11.640625 C 1.738281 12.011719 1.738281 12.378906 1.738281 12.746094 C 1.738281 13.058594 1.738281 13.371094 1.738281 13.683594 C 1.738281 13.84375 1.738281 14.003906 1.738281 14.164062 C 1.738281 14.308594 1.738281 14.453125 1.738281 14.601562 C 1.738281 14.679688 1.738281 14.757812 1.738281 14.832031 C 1.742188 15.265625 1.835938 15.660156 2.148438 15.976562 C 2.472656 16.238281 2.804688 16.371094 3.226562 16.371094 C 3.289062 16.371094 3.289062 16.371094 3.355469 16.371094 C 3.398438 16.371094 3.445312 16.371094 3.492188 16.371094 C 3.542969 16.371094 3.589844 16.371094 3.640625 16.371094 C 3.773438 16.371094 3.90625 16.371094 4.042969 16.371094 C 4.179688 16.371094 4.320312 16.371094 4.460938 16.371094 C 4.722656 16.371094 4.988281 16.371094 5.25 16.371094 C 5.550781 16.371094 5.851562 16.371094 6.152344 16.371094 C 6.773438 16.367188 7.390625 16.367188 8.007812 16.367188 C 7.996094 16.335938 7.996094 16.335938 7.988281 16.300781 C 7.957031 16.199219 7.925781 16.097656 7.894531 15.996094 C 7.882812 15.960938 7.875 15.925781 7.863281 15.890625 C 7.695312 15.339844 7.644531 14.820312 7.644531 14.246094 C 7.644531 14.207031 7.644531 14.207031 7.644531 14.164062 C 7.644531 13.847656 7.660156 13.546875 7.71875 13.234375 C 7.734375 13.128906 7.734375 13.035156 7.734375 12.929688 C 7.6875 12.929688 7.644531 12.929688 7.597656 12.929688 C 7.171875 12.929688 6.75 12.925781 6.324219 12.921875 C 6.105469 12.921875 5.886719 12.917969 5.667969 12.917969 C 5.457031 12.917969 5.246094 12.917969 5.035156 12.914062 C 4.957031 12.914062 4.875 12.914062 4.796875 12.914062 C 4.683594 12.914062 4.570312 12.914062 4.457031 12.910156 C 4.425781 12.914062 4.390625 12.914062 4.355469 12.914062 C 4.199219 12.910156 4.121094 12.902344 3.984375 12.816406 C 3.882812 12.707031 3.871094 12.644531 3.863281 12.5 C 3.871094 12.371094 3.910156 12.292969 3.984375 12.1875 C 4.164062 12.085938 4.355469 12.097656 4.558594 12.097656 C 4.59375 12.097656 4.632812 12.097656 4.671875 12.097656 C 4.796875 12.09375 4.921875 12.09375 5.042969 12.09375 C 5.132812 12.09375 5.21875 12.089844 5.304688 12.089844 C 5.53125 12.089844 5.757812 12.085938 5.984375 12.085938 C 6.21875 12.085938 6.449219 12.082031 6.683594 12.082031 C 7.136719 12.078125 7.59375 12.074219 8.046875 12.070312 C 8.058594 12.046875 8.070312 12.023438 8.082031 12 C 8.289062 11.597656 8.496094 11.199219 8.75 10.820312 C 8.726562 10.820312 8.703125 10.820312 8.679688 10.820312 C 8.105469 10.816406 7.53125 10.816406 6.957031 10.8125 C 6.679688 10.808594 6.402344 10.808594 6.125 10.808594 C 5.855469 10.804688 5.589844 10.804688 5.320312 10.800781 C 5.21875 10.800781 5.117188 10.800781 5.015625 10.800781 C 4.871094 10.800781 4.730469 10.800781 4.585938 10.796875 C 4.523438 10.796875 4.523438 10.796875 4.457031 10.796875 C 4.097656 10.792969 4.097656 10.792969 3.945312 10.664062 C 3.855469 10.519531 3.863281 10.394531 3.875 10.234375 C 3.921875 10.117188 3.996094 10.070312 4.101562 10 C 4.210938 9.980469 4.210938 9.980469 4.328125 9.980469 C 4.375 9.980469 4.421875 9.980469 4.46875 9.980469 C 4.542969 9.984375 4.542969 9.984375 4.617188 9.984375 C 4.671875 9.984375 4.726562 9.984375 4.777344 9.984375 C 4.894531 9.984375 5.007812 9.984375 5.121094 9.988281 C 5.304688 9.988281 5.484375 9.988281 5.664062 9.988281 C 6.179688 9.988281 6.695312 9.992188 7.210938 9.996094 C 7.496094 9.996094 7.78125 10 8.066406 10 C 8.246094 9.996094 8.425781 10 8.605469 10 C 8.71875 10.003906 8.832031 10.003906 8.945312 10.003906 C 9.019531 10.003906 9.097656 10.003906 9.171875 10.003906 C 9.550781 10 9.734375 9.867188 10 9.609375 C 10.160156 9.488281 10.335938 9.394531 10.507812 9.296875 C 10.53125 9.285156 10.554688 9.269531 10.578125 9.257812 C 11.558594 8.714844 12.558594 8.570312 13.671875 8.515625 C 13.671875 7.457031 13.671875 6.402344 13.671875 5.3125 C 12.832031 5.304688 12.832031 5.304688 11.992188 5.296875 C 11.886719 5.296875 11.777344 5.292969 11.671875 5.292969 C 11.632812 5.292969 11.632812 5.292969 11.589844 5.292969 C 11.003906 5.289062 10.398438 5.203125 9.960938 4.765625 C 9.507812 4.203125 9.441406 3.625 9.4375 2.921875 C 9.4375 2.863281 9.433594 2.804688 9.433594 2.742188 C 9.433594 2.585938 9.429688 2.433594 9.429688 2.277344 C 9.429688 2.117188 9.425781 1.957031 9.425781 1.796875 C 9.421875 1.484375 9.417969 1.171875 9.414062 0.859375 C 8.570312 0.855469 7.726562 0.851562 6.882812 0.851562 C 6.492188 0.851562 6.101562 0.847656 5.710938 0.847656 C 5.367188 0.847656 5.027344 0.84375 4.6875 0.84375 C 4.503906 0.84375 4.324219 0.84375 4.144531 0.84375 C 3.972656 0.839844 3.804688 0.839844 3.632812 0.839844 C 3.570312 0.839844 3.507812 0.839844 3.445312 0.839844 C 2.933594 0.835938 2.484375 0.90625 2.109375 1.289062 Z M 10.3125 1.5625 C 10.308594 1.859375 10.308594 2.152344 10.304688 2.449219 C 10.304688 2.550781 10.304688 2.648438 10.304688 2.75 C 10.300781 2.894531 10.300781 3.039062 10.300781 3.183594 C 10.300781 3.226562 10.300781 3.273438 10.300781 3.320312 C 10.300781 3.6875 10.375 3.914062 10.625 4.1875 C 10.847656 4.390625 11.105469 4.457031 11.402344 4.457031 C 11.457031 4.457031 11.457031 4.457031 11.511719 4.457031 C 11.550781 4.457031 11.589844 4.457031 11.632812 4.457031 C 11.671875 4.457031 11.710938 4.457031 11.753906 4.457031 C 11.882812 4.457031 12.011719 4.457031 12.140625 4.457031 C 12.230469 4.457031 12.316406 4.457031 12.402344 4.453125 C 12.617188 4.453125 12.832031 4.453125 13.046875 4.453125 C 12.972656 4.324219 12.898438 4.21875 12.792969 4.113281 C 12.765625 4.085938 12.738281 4.0625 12.710938 4.035156 C 12.667969 3.992188 12.667969 3.992188 12.625 3.953125 C 12.441406 3.773438 12.265625 3.589844 12.09375 3.394531 C 12 3.285156 11.898438 3.1875 11.796875 3.085938 C 11.644531 2.9375 11.5 2.785156 11.363281 2.621094 C 11.246094 2.492188 11.117188 2.367188 10.992188 2.242188 C 10.859375 2.109375 10.734375 1.976562 10.613281 1.828125 C 10.554688 1.765625 10.492188 1.710938 10.425781 1.65625 C 10.386719 1.625 10.351562 1.59375 10.3125 1.5625 Z M 10.15625 10.585938 C 10.109375 10.625 10.058594 10.664062 10.007812 10.707031 C 9.175781 11.433594 8.695312 12.523438 8.515625 13.59375 C 8.511719 13.625 8.503906 13.652344 8.5 13.683594 C 8.328125 14.921875 8.710938 16.203125 9.441406 17.199219 C 9.8125 17.679688 10.234375 18.0625 10.742188 18.398438 C 10.773438 18.421875 10.804688 18.441406 10.835938 18.464844 C 11.8125 19.105469 13.164062 19.304688 14.296875 19.082031 C 15.601562 18.789062 16.738281 18.035156 17.472656 16.914062 C 18.160156 15.835938 18.402344 14.535156 18.148438 13.28125 C 17.859375 12.003906 17.121094 10.882812 16.015625 10.171875 C 15.960938 10.140625 15.910156 10.109375 15.859375 10.078125 C 15.835938 10.0625 15.8125 10.046875 15.785156 10.035156 C 15.402344 9.804688 15 9.652344 14.570312 9.53125 C 14.5 9.511719 14.5 9.511719 14.429688 9.492188 C 12.941406 9.144531 11.289062 9.570312 10.15625 10.585938 Z M 10.15625 10.585938 "/>
<path style=" stroke:none;fill-rule:nonzero;fill:rgb(100%,100%,100%);fill-opacity:1;" d="M 13.515625 11.054688 C 13.632812 11.125 13.726562 11.203125 13.789062 11.328125 C 13.792969 11.390625 13.792969 11.449219 13.796875 11.511719 C 13.796875 11.550781 13.796875 11.589844 13.796875 11.628906 C 13.796875 11.671875 13.796875 11.714844 13.796875 11.761719 C 13.796875 11.804688 13.796875 11.851562 13.796875 11.894531 C 13.800781 12.046875 13.800781 12.195312 13.800781 12.34375 C 13.800781 12.449219 13.804688 12.550781 13.804688 12.652344 C 13.804688 12.898438 13.808594 13.140625 13.808594 13.386719 C 13.8125 13.664062 13.8125 13.941406 13.816406 14.222656 C 13.820312 14.792969 13.824219 15.367188 13.828125 15.9375 C 13.847656 15.914062 13.867188 15.894531 13.886719 15.871094 C 13.910156 15.84375 13.933594 15.816406 13.960938 15.785156 C 13.996094 15.746094 13.996094 15.746094 14.035156 15.703125 C 14.105469 15.621094 14.175781 15.542969 14.25 15.46875 C 14.273438 15.441406 14.296875 15.414062 14.324219 15.386719 C 14.351562 15.359375 14.375 15.332031 14.402344 15.304688 C 14.457031 15.246094 14.511719 15.1875 14.566406 15.128906 C 14.59375 15.101562 14.621094 15.074219 14.648438 15.042969 C 14.761719 14.925781 14.871094 14.804688 14.984375 14.683594 C 15.003906 14.664062 15.019531 14.644531 15.039062 14.621094 C 15.144531 14.507812 15.246094 14.390625 15.34375 14.273438 C 15.464844 14.132812 15.5625 14.074219 15.742188 14.023438 C 15.933594 14.027344 16.035156 14.089844 16.171875 14.21875 C 16.242188 14.363281 16.246094 14.496094 16.210938 14.648438 C 16.035156 14.9375 15.769531 15.171875 15.53125 15.40625 C 15.421875 15.515625 15.320312 15.632812 15.21875 15.75 C 15.136719 15.84375 15.046875 15.933594 14.953125 16.019531 C 14.886719 16.089844 14.820312 16.164062 14.757812 16.238281 C 14.609375 16.410156 14.453125 16.574219 14.300781 16.734375 C 14.128906 16.914062 13.964844 17.09375 13.804688 17.28125 C 13.679688 17.421875 13.585938 17.496094 13.398438 17.539062 C 13.105469 17.527344 12.957031 17.355469 12.765625 17.152344 C 12.683594 17.0625 12.605469 16.972656 12.523438 16.878906 C 12.382812 16.71875 12.234375 16.558594 12.085938 16.402344 C 12.03125 16.34375 11.976562 16.285156 11.921875 16.226562 C 11.894531 16.199219 11.867188 16.171875 11.839844 16.140625 C 11.628906 15.917969 11.417969 15.691406 11.210938 15.46875 C 11.1875 15.445312 11.167969 15.421875 11.144531 15.398438 C 11.042969 15.289062 10.941406 15.179688 10.84375 15.070312 C 10.785156 15.007812 10.722656 14.941406 10.664062 14.878906 C 10.503906 14.710938 10.464844 14.601562 10.46875 14.375 C 10.519531 14.207031 10.5625 14.15625 10.710938 14.066406 C 10.882812 14.015625 10.960938 14.015625 11.132812 14.0625 C 11.253906 14.15625 11.359375 14.265625 11.464844 14.378906 C 11.492188 14.40625 11.519531 14.433594 11.550781 14.464844 C 11.707031 14.628906 11.859375 14.796875 12.007812 14.96875 C 12.074219 15.042969 12.140625 15.109375 12.207031 15.175781 C 12.324219 15.292969 12.433594 15.414062 12.539062 15.539062 C 12.609375 15.617188 12.683594 15.691406 12.757812 15.765625 C 12.785156 15.792969 12.808594 15.816406 12.832031 15.839844 C 12.851562 15.859375 12.871094 15.878906 12.890625 15.898438 C 12.890625 15.875 12.890625 15.851562 12.890625 15.828125 C 12.894531 15.265625 12.894531 14.699219 12.898438 14.136719 C 12.902344 13.863281 12.902344 13.589844 12.902344 13.316406 C 12.90625 13.054688 12.90625 12.792969 12.910156 12.527344 C 12.910156 12.429688 12.910156 12.328125 12.910156 12.226562 C 12.910156 12.085938 12.910156 11.945312 12.914062 11.804688 C 12.914062 11.761719 12.914062 11.722656 12.914062 11.679688 C 12.914062 11.429688 12.941406 11.285156 13.113281 11.101562 C 13.246094 11.03125 13.371094 11.023438 13.515625 11.054688 Z M 13.515625 11.054688 "/>
<path style=" stroke:none;fill-rule:nonzero;fill:rgb(100%,100%,100%);fill-opacity:1;" d="M 4.605469 7.835938 C 4.667969 7.835938 4.667969 7.835938 4.734375 7.835938 C 4.875 7.835938 5.011719 7.835938 5.152344 7.835938 C 5.25 7.835938 5.347656 7.835938 5.445312 7.835938 C 5.675781 7.835938 5.902344 7.839844 6.132812 7.839844 C 6.371094 7.839844 6.605469 7.839844 6.839844 7.839844 C 7.039062 7.839844 7.242188 7.839844 7.441406 7.839844 C 7.539062 7.839844 7.632812 7.839844 7.730469 7.839844 C 7.867188 7.839844 8 7.839844 8.132812 7.839844 C 8.175781 7.839844 8.214844 7.839844 8.253906 7.839844 C 8.488281 7.84375 8.660156 7.847656 8.839844 8.011719 C 8.929688 8.167969 8.9375 8.296875 8.90625 8.476562 C 8.835938 8.605469 8.785156 8.65625 8.652344 8.714844 C 8.46875 8.761719 8.292969 8.761719 8.101562 8.761719 C 8.0625 8.761719 8.019531 8.761719 7.976562 8.761719 C 7.839844 8.761719 7.707031 8.761719 7.570312 8.761719 C 7.476562 8.761719 7.378906 8.761719 7.285156 8.761719 C 7.085938 8.761719 6.890625 8.761719 6.691406 8.761719 C 6.4375 8.757812 6.183594 8.761719 5.929688 8.761719 C 5.734375 8.761719 5.539062 8.761719 5.34375 8.761719 C 5.25 8.761719 5.15625 8.761719 5.0625 8.761719 C 4.933594 8.761719 4.800781 8.761719 4.671875 8.761719 C 4.632812 8.761719 4.59375 8.761719 4.554688 8.761719 C 4.320312 8.757812 4.128906 8.746094 3.933594 8.609375 C 3.84375 8.480469 3.820312 8.355469 3.828125 8.203125 C 3.875 8.054688 3.914062 7.992188 4.039062 7.90625 C 4.230469 7.832031 4.402344 7.835938 4.605469 7.835938 Z M 4.605469 7.835938 "/>
</svg>
