<?xml version="1.0" encoding="UTF-8"?>
<svg xmlns="http://www.w3.org/2000/svg" xmlns:xlink="http://www.w3.org/1999/xlink" width="20px" height="20px" viewBox="0 0 20 20" version="1.1">
<g id="surface1">
<path style=" stroke:none;fill-rule:nonzero;fill:rgb(55.29412%,85.490197%,55.29412%);fill-opacity:1;" d="M 10.773438 1.074219 C 10.96875 1.207031 11.09375 1.332031 11.222656 1.53125 C 11.265625 1.597656 11.265625 1.597656 11.304688 1.660156 C 11.324219 1.691406 11.347656 1.726562 11.367188 1.757812 C 11.394531 1.734375 11.421875 1.707031 11.449219 1.683594 C 11.652344 1.535156 11.894531 1.515625 12.136719 1.53125 C 12.425781 1.574219 12.640625 1.699219 12.84375 1.910156 C 12.886719 1.949219 12.886719 1.949219 12.929688 1.992188 C 13.007812 1.988281 13.007812 1.988281 13.085938 1.953125 C 13.289062 1.9375 13.460938 1.957031 13.632812 2.070312 C 13.90625 2.324219 14.046875 2.585938 14.070312 2.960938 C 14.070312 3.164062 14.019531 3.390625 13.882812 3.546875 C 13.804688 3.667969 13.820312 3.757812 13.828125 3.898438 C 13.835938 4.238281 13.765625 4.460938 13.550781 4.726562 C 13.378906 4.902344 13.160156 5.050781 12.921875 5.109375 C 12.800781 5.144531 12.800781 5.144531 12.765625 5.265625 C 12.753906 5.304688 12.746094 5.347656 12.734375 5.390625 C 12.46875 5.945312 12.070312 6.328125 11.5 6.558594 C 11.464844 6.570312 11.433594 6.585938 11.398438 6.597656 C 11.332031 6.625 11.269531 6.648438 11.203125 6.671875 C 10.953125 6.769531 10.785156 6.90625 10.664062 7.148438 C 10.664062 7.226562 10.664062 7.304688 10.664062 7.382812 C 10.894531 7.445312 11.042969 7.371094 11.25 7.265625 C 11.355469 7.195312 11.460938 7.125 11.5625 7.046875 C 11.640625 6.992188 11.640625 6.992188 11.71875 6.992188 C 11.730469 6.929688 11.746094 6.863281 11.757812 6.796875 C 11.984375 6.8125 12.144531 6.867188 12.304688 7.03125 C 12.339844 7.140625 12.339844 7.140625 12.34375 7.226562 C 12.28125 7.238281 12.214844 7.253906 12.148438 7.265625 C 12.144531 7.292969 12.140625 7.320312 12.136719 7.351562 C 12.039062 7.742188 11.699219 8.085938 11.375 8.308594 C 11.214844 8.425781 11.148438 8.511719 11.113281 8.707031 C 11.164062 9.011719 11.398438 9.160156 11.628906 9.335938 C 12.117188 9.699219 12.554688 10.144531 12.925781 10.628906 C 13.199219 10.972656 13.542969 11.253906 13.898438 11.511719 C 14.015625 11.59375 14.097656 11.660156 14.140625 11.796875 C 14.226562 12.472656 13.933594 13.128906 13.539062 13.664062 C 13.394531 13.84375 13.222656 13.992188 13.046875 14.140625 C 13.09375 14.132812 13.136719 14.125 13.1875 14.117188 C 13.246094 14.105469 13.308594 14.09375 13.371094 14.085938 C 13.402344 14.078125 13.429688 14.074219 13.460938 14.070312 C 13.917969 13.992188 14.371094 13.976562 14.832031 13.976562 C 14.933594 13.976562 15.03125 13.976562 15.132812 13.976562 C 15.199219 13.976562 15.261719 13.976562 15.328125 13.976562 C 15.359375 13.976562 15.386719 13.976562 15.417969 13.972656 C 15.605469 13.976562 15.761719 13.996094 15.9375 14.0625 C 16.105469 14.359375 16.09375 14.722656 16.121094 15.058594 C 16.167969 15.566406 16.300781 15.953125 16.671875 16.316406 C 16.777344 16.394531 16.875 16.445312 16.996094 16.5 C 17.328125 16.664062 17.449219 16.929688 17.578125 17.265625 C 17.578125 17.292969 17.578125 17.316406 17.578125 17.34375 C 18.03125 17.4375 18.484375 17.46875 18.945312 17.460938 C 18.945312 17.523438 18.945312 17.589844 18.945312 17.65625 C 18.84375 17.707031 18.769531 17.699219 18.65625 17.699219 C 18.589844 17.699219 18.589844 17.699219 18.527344 17.699219 C 18.484375 17.699219 18.4375 17.699219 18.394531 17.699219 C 18.347656 17.699219 18.304688 17.699219 18.257812 17.695312 C 18.148438 17.695312 18.039062 17.695312 17.929688 17.695312 C 17.957031 17.710938 17.957031 17.710938 17.984375 17.730469 C 18.671875 18.148438 18.671875 18.148438 18.867188 18.4375 C 18.65625 18.570312 18.433594 18.484375 18.203125 18.4375 C 18.105469 18.410156 18.007812 18.382812 17.90625 18.355469 C 17.515625 18.25 17.136719 18.171875 16.757812 18.359375 C 16.644531 18.441406 16.542969 18.535156 16.445312 18.632812 C 16.328125 18.746094 16.25 18.824219 16.082031 18.839844 C 15.917969 18.828125 15.855469 18.78125 15.71875 18.691406 C 15.390625 18.496094 15.019531 18.535156 14.648438 18.554688 C 14.316406 18.566406 14.058594 18.527344 13.75 18.398438 C 13.710938 18.382812 13.675781 18.367188 13.636719 18.351562 C 13.570312 18.328125 13.507812 18.300781 13.445312 18.273438 C 13.070312 18.132812 12.742188 18.21875 12.382812 18.359375 C 12.144531 18.464844 11.914062 18.589844 11.683594 18.710938 C 11.230469 18.953125 10.714844 19.101562 10.195312 19.0625 C 10.070312 18.9375 10.070312 18.769531 10.039062 18.597656 C 10.007812 18.476562 10.007812 18.476562 9.941406 18.402344 C 9.789062 18.335938 9.640625 18.339844 9.476562 18.339844 C 9.066406 18.335938 9.066406 18.335938 8.90625 18.203125 C 8.867188 18.109375 8.867188 18.109375 8.867188 18.007812 C 8.925781 17.921875 8.925781 17.921875 8.984375 17.851562 C 8.726562 17.726562 8.492188 17.640625 8.203125 17.695312 C 8.027344 17.761719 7.863281 17.84375 7.695312 17.929688 C 7.589844 17.964844 7.523438 17.972656 7.414062 17.976562 C 7.382812 17.976562 7.351562 17.976562 7.320312 17.976562 C 7.253906 17.980469 7.1875 17.980469 7.121094 17.980469 C 6.886719 17.988281 6.726562 18.046875 6.523438 18.164062 C 6.363281 18.253906 6.277344 18.253906 6.09375 18.203125 C 6.019531 18.140625 6.019531 18.140625 5.941406 18.066406 C 5.808594 17.945312 5.71875 17.882812 5.539062 17.878906 C 5.332031 17.902344 5.132812 17.96875 4.933594 18.035156 C 4.792969 18.078125 4.652344 18.113281 4.507812 18.144531 C 4.324219 18.183594 4.144531 18.238281 3.96875 18.300781 C 3.484375 18.464844 2.996094 18.558594 2.484375 18.5625 C 2.457031 18.5625 2.425781 18.5625 2.394531 18.5625 C 2.332031 18.5625 2.269531 18.5625 2.210938 18.5625 C 2.113281 18.5625 2.019531 18.5625 1.921875 18.5625 C 1.863281 18.5625 1.800781 18.5625 1.742188 18.5625 C 1.710938 18.5625 1.683594 18.5625 1.65625 18.566406 C 1.453125 18.5625 1.453125 18.5625 1.367188 18.476562 C 1.382812 18.394531 1.382812 18.394531 1.40625 18.320312 C 1.429688 18.320312 1.453125 18.320312 1.480469 18.320312 C 3.140625 18.359375 3.140625 18.359375 4.632812 17.714844 C 4.664062 17.679688 4.664062 17.679688 4.699219 17.644531 C 4.769531 17.574219 4.847656 17.519531 4.929688 17.464844 C 5.117188 17.328125 5.195312 17.160156 5.261719 16.945312 C 5.355469 16.675781 5.511719 16.589844 5.75 16.445312 C 5.9375 16.308594 5.984375 16.152344 6.054688 15.9375 C 6.0625 15.875 6.066406 15.808594 6.074219 15.746094 C 6.074219 15.707031 6.078125 15.671875 6.082031 15.632812 C 6.089844 15.554688 6.09375 15.476562 6.101562 15.398438 C 6.132812 15.023438 6.132812 15.023438 6.210938 14.84375 C 6.488281 14.703125 6.894531 14.753906 7.199219 14.753906 C 7.257812 14.753906 7.316406 14.753906 7.375 14.75 C 7.875 14.742188 8.382812 14.78125 8.828125 15.039062 C 8.875 15.136719 8.875 15.136719 8.90625 15.257812 C 8.917969 15.300781 8.929688 15.34375 8.941406 15.390625 C 8.949219 15.417969 8.957031 15.441406 8.960938 15.464844 C 9.003906 15.621094 9.054688 15.769531 9.105469 15.921875 C 9.117188 15.953125 9.125 15.984375 9.136719 16.015625 C 9.144531 16.042969 9.15625 16.074219 9.164062 16.101562 C 9.171875 16.128906 9.183594 16.152344 9.191406 16.179688 C 9.21875 16.261719 9.21875 16.261719 9.296875 16.367188 C 9.4375 16.394531 9.4375 16.394531 9.570312 16.40625 C 9.609375 16.507812 9.648438 16.613281 9.6875 16.71875 C 9.738281 16.707031 9.789062 16.691406 9.839844 16.679688 C 9.972656 16.664062 10.023438 16.667969 10.136719 16.742188 C 10.199219 16.800781 10.265625 16.859375 10.328125 16.917969 C 10.484375 17.03125 10.632812 17.050781 10.820312 17.070312 C 10.886719 17.082031 10.949219 17.09375 11.015625 17.109375 C 11.023438 17.074219 11.03125 17.042969 11.039062 17.007812 C 11.054688 16.945312 11.054688 16.945312 11.070312 16.878906 C 11.085938 16.8125 11.085938 16.8125 11.101562 16.746094 C 11.132812 16.640625 11.132812 16.640625 11.171875 16.601562 C 11.269531 16.589844 11.367188 16.578125 11.464844 16.570312 C 11.585938 16.511719 11.625 16.441406 11.679688 16.316406 C 11.765625 16.082031 11.820312 15.835938 11.878906 15.589844 C 11.894531 15.535156 11.90625 15.480469 11.921875 15.425781 C 11.984375 15.164062 12.046875 14.90625 12.085938 14.644531 C 12.117188 14.550781 12.152344 14.523438 12.230469 14.46875 C 12.285156 14.441406 12.285156 14.441406 12.34375 14.414062 C 12.308594 14.414062 12.308594 14.414062 12.269531 14.414062 C 12.035156 14.40625 11.882812 14.363281 11.714844 14.199219 C 11.574219 14.015625 11.492188 13.804688 11.402344 13.59375 C 11.210938 13.148438 10.976562 12.789062 10.648438 12.4375 C 10.324219 12.09375 10.070312 11.71875 9.835938 11.308594 C 9.6875 11.054688 9.511719 10.847656 9.222656 10.757812 C 9.035156 10.722656 8.863281 10.75 8.6875 10.824219 C 8.601562 10.9375 8.621094 11.035156 8.632812 11.171875 C 8.652344 11.179688 8.675781 11.191406 8.695312 11.199219 C 8.828125 11.257812 8.925781 11.308594 9.023438 11.414062 C 9.09375 11.613281 9.097656 11.796875 9.007812 11.988281 C 8.945312 12.070312 8.945312 12.070312 8.867188 12.148438 C 8.816406 12.148438 8.765625 12.148438 8.710938 12.148438 C 8.699219 12.207031 8.699219 12.207031 8.683594 12.269531 C 8.636719 12.4375 8.5625 12.535156 8.4375 12.65625 C 8.257812 12.746094 8.121094 12.746094 7.929688 12.695312 C 7.753906 12.5625 7.695312 12.441406 7.65625 12.226562 C 7.652344 12.136719 7.652344 12.042969 7.65625 11.953125 C 7.628906 11.953125 7.601562 11.953125 7.578125 11.957031 C 7.542969 11.957031 7.507812 11.957031 7.46875 11.957031 C 7.4375 11.957031 7.402344 11.960938 7.367188 11.960938 C 7.257812 11.953125 7.199219 11.933594 7.109375 11.875 C 7 11.742188 6.96875 11.625 6.976562 11.453125 C 7.015625 11.238281 7.105469 11.046875 7.273438 10.902344 C 7.5 10.75 7.65625 10.699219 7.929688 10.703125 C 7.929688 10.667969 7.929688 10.636719 7.933594 10.601562 C 7.984375 10.414062 8.078125 10.328125 8.242188 10.234375 C 8.402344 10.164062 8.566406 10.105469 8.734375 10.050781 C 8.867188 10.011719 8.867188 10.011719 8.945312 9.921875 C 8.96875 9.839844 8.96875 9.839844 8.984375 9.765625 C 8.527344 9.625 8.136719 9.675781 7.695312 9.84375 C 7.660156 9.855469 7.625 9.867188 7.589844 9.878906 C 7.480469 9.917969 7.421875 9.953125 7.34375 10.039062 C 7.296875 10.183594 7.273438 10.328125 7.25 10.480469 C 7.1875 10.839844 6.960938 11.101562 6.679688 11.328125 C 6.433594 11.484375 6.214844 11.523438 5.925781 11.464844 C 5.851562 11.449219 5.777344 11.425781 5.703125 11.40625 C 5.621094 11.527344 5.601562 11.605469 5.574219 11.746094 C 5.492188 12.082031 5.355469 12.296875 5.078125 12.5 C 4.988281 12.542969 4.917969 12.550781 4.820312 12.5625 C 4.789062 12.5625 4.753906 12.566406 4.722656 12.570312 C 4.699219 12.574219 4.671875 12.574219 4.648438 12.578125 C 4.640625 12.613281 4.632812 12.644531 4.621094 12.679688 C 4.535156 12.988281 4.460938 13.234375 4.179688 13.410156 C 3.863281 13.574219 3.546875 13.601562 3.203125 13.511719 C 2.878906 13.402344 2.605469 13.207031 2.429688 12.910156 C 2.285156 12.605469 2.21875 12.28125 2.304688 11.953125 C 2.386719 11.753906 2.484375 11.578125 2.617188 11.40625 C 2.589844 11.402344 2.5625 11.398438 2.535156 11.394531 C 2.273438 11.328125 2.105469 11.148438 1.953125 10.9375 C 1.867188 10.777344 1.855469 10.648438 1.875 10.46875 C 1.972656 10.207031 2.117188 10.007812 2.304688 9.804688 C 2.269531 9.796875 2.238281 9.789062 2.203125 9.78125 C 1.992188 9.695312 1.882812 9.542969 1.78125 9.34375 C 1.730469 9.0625 1.757812 8.785156 1.925781 8.546875 C 2.054688 8.410156 2.21875 8.328125 2.382812 8.242188 C 2.421875 8.214844 2.460938 8.191406 2.5 8.164062 C 2.445312 8.078125 2.445312 8.078125 2.34375 8.007812 C 2.257812 8 2.257812 8 2.164062 8.007812 C 1.851562 8.019531 1.582031 7.925781 1.351562 7.710938 C 1.105469 7.4375 1.027344 7.152344 1.042969 6.789062 C 1.074219 6.519531 1.175781 6.324219 1.367188 6.132812 C 1.476562 6.078125 1.476562 6.078125 1.5625 6.054688 C 1.5625 6.027344 1.5625 6.003906 1.5625 5.976562 C 1.527344 5.960938 1.527344 5.960938 1.492188 5.945312 C 1.332031 5.855469 1.25 5.710938 1.171875 5.546875 C 1.140625 5.367188 1.148438 5.21875 1.214844 5.046875 C 1.355469 4.882812 1.496094 4.726562 1.71875 4.6875 C 1.703125 4.664062 1.6875 4.644531 1.667969 4.621094 C 1.648438 4.59375 1.625 4.566406 1.605469 4.535156 C 1.582031 4.507812 1.5625 4.480469 1.539062 4.449219 C 1.421875 4.289062 1.421875 4.140625 1.445312 3.945312 C 1.511719 3.710938 1.628906 3.589844 1.839844 3.472656 C 2 3.398438 2.128906 3.394531 2.304688 3.398438 C 2.292969 3.367188 2.277344 3.335938 2.261719 3.304688 C 2.238281 3.238281 2.238281 3.238281 2.210938 3.175781 C 2.183594 3.113281 2.183594 3.113281 2.15625 3.050781 C 2.027344 2.71875 2.042969 2.394531 2.1875 2.070312 C 2.332031 1.851562 2.515625 1.667969 2.773438 1.601562 C 3.222656 1.550781 3.515625 1.617188 3.871094 1.886719 C 3.972656 1.972656 4.078125 2.058594 4.179688 2.148438 C 4.1875 2.125 4.199219 2.101562 4.210938 2.078125 C 4.355469 1.816406 4.628906 1.636719 4.910156 1.546875 C 5.519531 1.433594 6.117188 1.542969 6.640625 1.875 C 6.78125 2.003906 6.886719 2.144531 6.992188 2.304688 C 7.011719 2.292969 7.03125 2.28125 7.050781 2.269531 C 7.355469 2.113281 7.671875 2.097656 8.003906 2.175781 C 8.171875 2.234375 8.289062 2.300781 8.410156 2.433594 C 8.460938 2.484375 8.460938 2.484375 8.515625 2.539062 C 8.605469 2.527344 8.605469 2.527344 8.710938 2.5 C 8.804688 2.492188 8.902344 2.484375 8.996094 2.476562 C 9.046875 2.476562 9.09375 2.472656 9.144531 2.46875 C 9.183594 2.464844 9.21875 2.464844 9.257812 2.460938 C 9.246094 2.421875 9.230469 2.382812 9.21875 2.34375 C 9.1875 1.90625 9.207031 1.578125 9.484375 1.21875 C 9.828125 0.847656 10.339844 0.832031 10.773438 1.074219 Z M 10.039062 6.09375 C 9.984375 6.167969 9.984375 6.167969 9.929688 6.257812 C 9.800781 6.460938 9.683594 6.5625 9.453125 6.640625 C 9.382812 6.644531 9.3125 6.648438 9.242188 6.648438 C 9.1875 6.648438 9.1875 6.648438 9.132812 6.648438 C 9.015625 6.640625 8.933594 6.609375 8.828125 6.5625 C 8.808594 6.582031 8.792969 6.597656 8.773438 6.617188 C 8.746094 6.640625 8.722656 6.667969 8.695312 6.691406 C 8.660156 6.726562 8.660156 6.726562 8.621094 6.765625 C 8.46875 6.867188 8.300781 6.90625 8.125 6.953125 C 8.183594 7.097656 8.246094 7.238281 8.304688 7.378906 C 8.324219 7.421875 8.339844 7.460938 8.355469 7.5 C 8.566406 7.996094 8.566406 7.996094 8.945312 8.359375 C 9.0625 8.386719 9.0625 8.386719 9.179688 8.359375 C 9.347656 8.234375 9.402344 8.085938 9.433594 7.882812 C 9.441406 7.8125 9.441406 7.8125 9.449219 7.742188 C 9.511719 7.289062 9.695312 6.949219 10.046875 6.652344 C 10.210938 6.519531 10.210938 6.519531 10.273438 6.328125 C 10.210938 6.195312 10.210938 6.195312 10.117188 6.09375 C 10.089844 6.09375 10.066406 6.09375 10.039062 6.09375 Z M 8.046875 8.320312 C 7.988281 8.402344 7.929688 8.488281 7.871094 8.570312 C 7.855469 8.59375 7.835938 8.621094 7.820312 8.644531 C 7.734375 8.746094 7.734375 8.746094 7.695312 8.867188 C 7.828125 8.871094 7.957031 8.871094 8.089844 8.875 C 8.128906 8.875 8.164062 8.875 8.203125 8.878906 C 8.417969 8.878906 8.566406 8.867188 8.75 8.75 C 8.609375 8.59375 8.480469 8.507812 8.289062 8.425781 C 8.242188 8.40625 8.199219 8.386719 8.152344 8.363281 C 8.117188 8.351562 8.082031 8.335938 8.046875 8.320312 Z M 8.046875 8.320312 "/>
<path style=" stroke:none;fill-rule:nonzero;fill:rgb(83.92157%,50.588238%,35.686275%);fill-opacity:1;" d="M 12.578125 3.554688 C 12.707031 3.554688 12.835938 3.554688 12.96875 3.554688 C 13.109375 3.972656 13.011719 4.511719 12.890625 4.921875 C 12.878906 4.972656 12.878906 4.972656 12.863281 5.023438 C 12.714844 5.59375 12.339844 6.101562 11.835938 6.40625 C 11.660156 6.496094 11.480469 6.570312 11.296875 6.648438 C 11.015625 6.769531 10.804688 6.863281 10.664062 7.148438 C 10.664062 7.226562 10.664062 7.304688 10.664062 7.382812 C 10.894531 7.445312 11.042969 7.371094 11.25 7.265625 C 11.355469 7.195312 11.460938 7.125 11.5625 7.046875 C 11.640625 6.992188 11.640625 6.992188 11.71875 6.992188 C 11.730469 6.929688 11.746094 6.863281 11.757812 6.796875 C 11.984375 6.8125 12.144531 6.867188 12.304688 7.03125 C 12.339844 7.140625 12.339844 7.140625 12.34375 7.226562 C 12.28125 7.238281 12.214844 7.253906 12.148438 7.265625 C 12.144531 7.292969 12.140625 7.320312 12.136719 7.351562 C 12.039062 7.742188 11.699219 8.085938 11.375 8.308594 C 11.214844 8.425781 11.148438 8.511719 11.113281 8.707031 C 11.164062 9.011719 11.398438 9.160156 11.628906 9.335938 C 12.117188 9.699219 12.554688 10.144531 12.925781 10.628906 C 13.199219 10.972656 13.542969 11.253906 13.898438 11.511719 C 14.015625 11.59375 14.097656 11.660156 14.140625 11.796875 C 14.226562 12.472656 13.933594 13.128906 13.539062 13.664062 C 13.394531 13.84375 13.222656 13.992188 13.046875 14.140625 C 13.09375 14.132812 13.136719 14.125 13.1875 14.117188 C 13.246094 14.105469 13.308594 14.09375 13.371094 14.085938 C 13.402344 14.078125 13.429688 14.074219 13.460938 14.070312 C 13.917969 13.992188 14.371094 13.976562 14.832031 13.976562 C 14.933594 13.976562 15.03125 13.976562 15.132812 13.976562 C 15.199219 13.976562 15.261719 13.976562 15.328125 13.976562 C 15.359375 13.976562 15.386719 13.976562 15.417969 13.972656 C 15.605469 13.976562 15.761719 13.996094 15.9375 14.0625 C 16.105469 14.359375 16.09375 14.722656 16.121094 15.058594 C 16.167969 15.566406 16.300781 15.953125 16.671875 16.316406 C 16.777344 16.394531 16.875 16.445312 16.996094 16.5 C 17.328125 16.664062 17.449219 16.929688 17.578125 17.265625 C 17.578125 17.292969 17.578125 17.316406 17.578125 17.34375 C 18.03125 17.4375 18.484375 17.46875 18.945312 17.460938 C 18.945312 17.523438 18.945312 17.589844 18.945312 17.65625 C 18.84375 17.707031 18.769531 17.699219 18.65625 17.699219 C 18.589844 17.699219 18.589844 17.699219 18.527344 17.699219 C 18.484375 17.699219 18.4375 17.699219 18.394531 17.699219 C 18.347656 17.699219 18.304688 17.699219 18.257812 17.695312 C 18.148438 17.695312 18.039062 17.695312 17.929688 17.695312 C 17.957031 17.710938 17.957031 17.710938 17.984375 17.730469 C 18.671875 18.148438 18.671875 18.148438 18.867188 18.4375 C 18.65625 18.570312 18.433594 18.484375 18.203125 18.4375 C 18.105469 18.410156 18.007812 18.382812 17.90625 18.355469 C 17.515625 18.25 17.136719 18.171875 16.757812 18.359375 C 16.644531 18.441406 16.542969 18.535156 16.445312 18.632812 C 16.328125 18.746094 16.25 18.824219 16.082031 18.839844 C 15.917969 18.828125 15.855469 18.78125 15.71875 18.691406 C 15.390625 18.496094 15.019531 18.535156 14.648438 18.554688 C 14.316406 18.566406 14.058594 18.527344 13.75 18.398438 C 13.710938 18.382812 13.675781 18.367188 13.636719 18.351562 C 13.570312 18.328125 13.507812 18.300781 13.445312 18.273438 C 13.070312 18.132812 12.742188 18.21875 12.382812 18.359375 C 12.144531 18.464844 11.914062 18.589844 11.683594 18.710938 C 11.230469 18.953125 10.714844 19.101562 10.195312 19.0625 C 10.070312 18.9375 10.070312 18.769531 10.039062 18.597656 C 10.007812 18.476562 10.007812 18.476562 9.941406 18.402344 C 9.789062 18.335938 9.640625 18.339844 9.476562 18.339844 C 9.066406 18.335938 9.066406 18.335938 8.90625 18.203125 C 8.867188 18.109375 8.867188 18.109375 8.867188 18.007812 C 8.925781 17.921875 8.925781 17.921875 8.984375 17.851562 C 8.726562 17.726562 8.492188 17.640625 8.203125 17.695312 C 8.027344 17.761719 7.863281 17.84375 7.695312 17.929688 C 7.589844 17.964844 7.523438 17.972656 7.414062 17.976562 C 7.382812 17.976562 7.351562 17.976562 7.320312 17.976562 C 7.253906 17.980469 7.1875 17.980469 7.121094 17.980469 C 6.886719 17.988281 6.726562 18.046875 6.523438 18.164062 C 6.363281 18.253906 6.277344 18.253906 6.09375 18.203125 C 6.019531 18.140625 6.019531 18.140625 5.941406 18.066406 C 5.808594 17.945312 5.71875 17.882812 5.539062 17.878906 C 5.332031 17.902344 5.132812 17.96875 4.933594 18.035156 C 4.792969 18.078125 4.652344 18.113281 4.507812 18.144531 C 4.324219 18.183594 4.144531 18.238281 3.96875 18.300781 C 3.484375 18.464844 2.996094 18.558594 2.484375 18.5625 C 2.457031 18.5625 2.425781 18.5625 2.394531 18.5625 C 2.332031 18.5625 2.269531 18.5625 2.210938 18.5625 C 2.113281 18.5625 2.019531 18.5625 1.921875 18.5625 C 1.863281 18.5625 1.800781 18.5625 1.742188 18.5625 C 1.710938 18.5625 1.683594 18.5625 1.65625 18.566406 C 1.453125 18.5625 1.453125 18.5625 1.367188 18.476562 C 1.382812 18.394531 1.382812 18.394531 1.40625 18.320312 C 1.429688 18.320312 1.453125 18.320312 1.480469 18.320312 C 3.140625 18.359375 3.140625 18.359375 4.632812 17.714844 C 4.664062 17.679688 4.664062 17.679688 4.699219 17.644531 C 4.769531 17.574219 4.847656 17.519531 4.929688 17.464844 C 5.117188 17.328125 5.195312 17.160156 5.261719 16.945312 C 5.355469 16.675781 5.511719 16.589844 5.75 16.445312 C 5.9375 16.308594 5.984375 16.152344 6.054688 15.9375 C 6.0625 15.875 6.066406 15.808594 6.074219 15.746094 C 6.074219 15.707031 6.078125 15.671875 6.082031 15.632812 C 6.089844 15.554688 6.09375 15.476562 6.101562 15.398438 C 6.132812 15.023438 6.132812 15.023438 6.210938 14.84375 C 6.488281 14.703125 6.894531 14.753906 7.199219 14.753906 C 7.257812 14.753906 7.316406 14.753906 7.375 14.75 C 7.875 14.742188 8.382812 14.78125 8.828125 15.039062 C 8.875 15.136719 8.875 15.136719 8.90625 15.257812 C 8.917969 15.300781 8.929688 15.34375 8.941406 15.390625 C 8.949219 15.417969 8.957031 15.441406 8.960938 15.464844 C 9.003906 15.621094 9.054688 15.769531 9.105469 15.921875 C 9.117188 15.953125 9.125 15.984375 9.136719 16.015625 C 9.144531 16.042969 9.15625 16.074219 9.164062 16.101562 C 9.171875 16.128906 9.183594 16.152344 9.191406 16.179688 C 9.21875 16.261719 9.21875 16.261719 9.296875 16.367188 C 9.4375 16.394531 9.4375 16.394531 9.570312 16.40625 C 9.609375 16.507812 9.648438 16.613281 9.6875 16.71875 C 9.738281 16.707031 9.789062 16.691406 9.839844 16.679688 C 9.972656 16.664062 10.023438 16.667969 10.136719 16.742188 C 10.199219 16.800781 10.265625 16.859375 10.328125 16.917969 C 10.484375 17.03125 10.632812 17.050781 10.820312 17.070312 C 10.886719 17.082031 10.949219 17.09375 11.015625 17.109375 C 11.023438 17.074219 11.03125 17.042969 11.039062 17.007812 C 11.054688 16.945312 11.054688 16.945312 11.070312 16.878906 C 11.082031 16.835938 11.09375 16.792969 11.101562 16.746094 C 11.132812 16.640625 11.132812 16.640625 11.171875 16.601562 C 11.269531 16.589844 11.367188 16.578125 11.464844 16.570312 C 11.585938 16.511719 11.625 16.441406 11.679688 16.316406 C 11.765625 16.082031 11.820312 15.835938 11.878906 15.589844 C 11.894531 15.535156 11.90625 15.480469 11.921875 15.425781 C 11.984375 15.164062 12.046875 14.90625 12.085938 14.644531 C 12.117188 14.550781 12.152344 14.523438 12.230469 14.46875 C 12.285156 14.441406 12.285156 14.441406 12.34375 14.414062 C 12.308594 14.414062 12.308594 14.414062 12.269531 14.414062 C 12.035156 14.40625 11.882812 14.363281 11.714844 14.199219 C 11.574219 14.015625 11.492188 13.804688 11.402344 13.59375 C 11.210938 13.148438 10.976562 12.789062 10.648438 12.4375 C 10.324219 12.09375 10.070312 11.71875 9.835938 11.308594 C 9.6875 11.054688 9.511719 10.847656 9.222656 10.757812 C 9.035156 10.722656 8.863281 10.75 8.6875 10.824219 C 8.601562 10.9375 8.621094 11.035156 8.632812 11.171875 C 8.652344 11.179688 8.675781 11.191406 8.695312 11.199219 C 8.828125 11.257812 8.925781 11.308594 9.023438 11.414062 C 9.09375 11.613281 9.097656 11.796875 9.007812 11.988281 C 8.945312 12.070312 8.945312 12.070312 8.867188 12.148438 C 8.816406 12.148438 8.765625 12.148438 8.710938 12.148438 C 8.699219 12.207031 8.699219 12.207031 8.683594 12.269531 C 8.636719 12.4375 8.5625 12.535156 8.4375 12.65625 C 8.257812 12.746094 8.121094 12.746094 7.929688 12.695312 C 7.753906 12.5625 7.695312 12.441406 7.65625 12.226562 C 7.652344 12.136719 7.652344 12.042969 7.65625 11.953125 C 7.628906 11.953125 7.601562 11.953125 7.578125 11.957031 C 7.542969 11.957031 7.507812 11.957031 7.46875 11.957031 C 7.4375 11.957031 7.402344 11.960938 7.367188 11.960938 C 7.257812 11.953125 7.199219 11.933594 7.109375 11.875 C 7 11.742188 6.96875 11.625 6.976562 11.453125 C 7.015625 11.238281 7.105469 11.046875 7.273438 10.902344 C 7.5 10.75 7.65625 10.699219 7.929688 10.703125 C 7.929688 10.667969 7.929688 10.636719 7.933594 10.601562 C 7.984375 10.414062 8.078125 10.328125 8.242188 10.234375 C 8.402344 10.164062 8.566406 10.105469 8.734375 10.050781 C 8.867188 10.011719 8.867188 10.011719 8.945312 9.921875 C 8.96875 9.839844 8.96875 9.839844 8.984375 9.765625 C 8.5 9.617188 8.042969 9.671875 7.585938 9.898438 C 7.527344 9.929688 7.46875 9.964844 7.410156 10 C 7.34375 10.039062 7.34375 10.039062 7.265625 10.039062 C 7.261719 10.007812 7.257812 9.980469 7.253906 9.949219 C 7.222656 9.695312 7.167969 9.503906 7.03125 9.285156 C 6.992188 9.21875 6.992188 9.21875 6.992188 9.140625 C 7.015625 9.136719 7.035156 9.132812 7.058594 9.128906 C 7.089844 9.125 7.121094 9.121094 7.152344 9.113281 C 7.179688 9.109375 7.210938 9.105469 7.238281 9.097656 C 7.355469 9.066406 7.355469 9.066406 7.464844 8.964844 C 7.648438 8.824219 7.847656 8.839844 8.070312 8.839844 C 8.152344 8.839844 8.230469 8.839844 8.308594 8.835938 C 8.34375 8.835938 8.378906 8.835938 8.414062 8.835938 C 8.527344 8.828125 8.609375 8.796875 8.710938 8.75 C 8.585938 8.609375 8.457031 8.53125 8.289062 8.445312 C 8.265625 8.433594 8.242188 8.421875 8.21875 8.410156 C 8.164062 8.378906 8.105469 8.351562 8.046875 8.320312 C 8.066406 8.214844 8.089844 8.117188 8.125 8.015625 C 8.171875 7.871094 8.179688 7.734375 8.179688 7.582031 C 8.179688 7.554688 8.179688 7.527344 8.179688 7.5 C 8.175781 7.273438 8.121094 7.140625 8.007812 6.953125 C 8.019531 6.914062 8.035156 6.875 8.046875 6.835938 C 8.203125 7.074219 8.324219 7.320312 8.4375 7.582031 C 8.621094 8.007812 8.621094 8.007812 8.945312 8.320312 C 9.105469 8.339844 9.105469 8.339844 9.25 8.273438 C 9.363281 8.109375 9.386719 7.941406 9.410156 7.742188 C 9.476562 7.238281 9.703125 6.910156 10.085938 6.585938 C 10.21875 6.46875 10.265625 6.375 10.292969 6.203125 C 10.253906 5.917969 10.105469 5.6875 9.921875 5.46875 C 9.921875 5.441406 9.921875 5.417969 9.921875 5.390625 C 9.976562 5.355469 10.03125 5.324219 10.085938 5.289062 C 10.117188 5.273438 10.148438 5.253906 10.179688 5.234375 C 10.273438 5.195312 10.273438 5.195312 10.359375 5.203125 C 10.429688 5.234375 10.429688 5.234375 10.5 5.34375 C 10.601562 5.488281 10.695312 5.570312 10.859375 5.625 C 11.140625 5.667969 11.40625 5.632812 11.640625 5.46875 C 11.816406 5.285156 11.851562 5.09375 11.910156 4.851562 C 11.957031 4.714844 11.988281 4.675781 12.109375 4.609375 C 12.148438 4.59375 12.183594 4.578125 12.222656 4.5625 C 12.390625 4.464844 12.472656 4.363281 12.539062 4.179688 C 12.570312 3.972656 12.574219 3.761719 12.578125 3.554688 Z M 12.578125 3.554688 "/>
<path style=" stroke:none;fill-rule:nonzero;fill:rgb(84.313726%,50.588238%,35.294119%);fill-opacity:1;" d="M 15.820312 14.023438 C 15.859375 14.035156 15.898438 14.050781 15.9375 14.0625 C 16.09375 14.375 16.09375 14.714844 16.121094 15.058594 C 16.167969 15.566406 16.300781 15.953125 16.671875 16.316406 C 16.777344 16.394531 16.875 16.445312 16.996094 16.5 C 17.328125 16.664062 17.449219 16.929688 17.578125 17.265625 C 17.578125 17.292969 17.578125 17.316406 17.578125 17.34375 C 18.03125 17.4375 18.484375 17.46875 18.945312 17.460938 C 18.945312 17.523438 18.945312 17.589844 18.945312 17.65625 C 18.84375 17.707031 18.769531 17.699219 18.65625 17.699219 C 18.589844 17.699219 18.589844 17.699219 18.527344 17.699219 C 18.484375 17.699219 18.4375 17.699219 18.394531 17.699219 C 18.347656 17.699219 18.304688 17.699219 18.257812 17.695312 C 18.148438 17.695312 18.039062 17.695312 17.929688 17.695312 C 17.949219 17.707031 17.96875 17.71875 17.984375 17.730469 C 18.671875 18.148438 18.671875 18.148438 18.867188 18.4375 C 18.65625 18.570312 18.433594 18.484375 18.203125 18.4375 C 18.105469 18.410156 18.007812 18.382812 17.90625 18.355469 C 17.515625 18.25 17.136719 18.171875 16.757812 18.359375 C 16.644531 18.441406 16.542969 18.535156 16.445312 18.632812 C 16.328125 18.746094 16.25 18.824219 16.082031 18.839844 C 15.917969 18.828125 15.855469 18.78125 15.71875 18.691406 C 15.390625 18.496094 15.019531 18.535156 14.648438 18.554688 C 14.316406 18.566406 14.058594 18.527344 13.75 18.398438 C 13.691406 18.375 13.691406 18.375 13.636719 18.351562 C 13.570312 18.328125 13.507812 18.300781 13.445312 18.273438 C 13.070312 18.132812 12.742188 18.21875 12.382812 18.359375 C 12.144531 18.464844 11.914062 18.589844 11.683594 18.710938 C 11.230469 18.953125 10.714844 19.101562 10.195312 19.0625 C 10.070312 18.9375 10.070312 18.769531 10.039062 18.597656 C 10.007812 18.476562 10.007812 18.476562 9.941406 18.402344 C 9.789062 18.335938 9.640625 18.339844 9.476562 18.339844 C 9.066406 18.335938 9.066406 18.335938 8.90625 18.203125 C 8.867188 18.109375 8.867188 18.109375 8.867188 18.007812 C 8.925781 17.921875 8.925781 17.921875 8.984375 17.851562 C 8.726562 17.726562 8.492188 17.640625 8.203125 17.695312 C 8.027344 17.761719 7.863281 17.84375 7.695312 17.929688 C 7.589844 17.964844 7.523438 17.972656 7.414062 17.976562 C 7.382812 17.976562 7.351562 17.976562 7.320312 17.976562 C 7.253906 17.980469 7.1875 17.980469 7.121094 17.980469 C 6.886719 17.988281 6.726562 18.046875 6.523438 18.164062 C 6.363281 18.253906 6.277344 18.253906 6.09375 18.203125 C 6.019531 18.140625 6.019531 18.140625 5.941406 18.066406 C 5.808594 17.945312 5.71875 17.882812 5.539062 17.878906 C 5.332031 17.902344 5.132812 17.96875 4.933594 18.035156 C 4.792969 18.078125 4.652344 18.113281 4.507812 18.144531 C 4.324219 18.183594 4.144531 18.238281 3.96875 18.300781 C 3.484375 18.464844 2.996094 18.558594 2.484375 18.5625 C 2.441406 18.5625 2.441406 18.5625 2.394531 18.5625 C 2.332031 18.5625 2.269531 18.5625 2.210938 18.5625 C 2.113281 18.5625 2.019531 18.5625 1.921875 18.5625 C 1.863281 18.5625 1.800781 18.5625 1.742188 18.5625 C 1.710938 18.5625 1.683594 18.5625 1.65625 18.566406 C 1.453125 18.5625 1.453125 18.5625 1.367188 18.476562 C 1.382812 18.394531 1.382812 18.394531 1.40625 18.320312 C 1.429688 18.320312 1.453125 18.320312 1.480469 18.320312 C 3.140625 18.359375 3.140625 18.359375 4.632812 17.714844 C 4.652344 17.691406 4.675781 17.667969 4.699219 17.644531 C 4.769531 17.574219 4.847656 17.519531 4.929688 17.464844 C 5.117188 17.328125 5.195312 17.160156 5.261719 16.945312 C 5.355469 16.675781 5.511719 16.589844 5.75 16.445312 C 5.9375 16.308594 5.984375 16.152344 6.054688 15.9375 C 6.0625 15.875 6.066406 15.808594 6.074219 15.746094 C 6.078125 15.691406 6.078125 15.691406 6.082031 15.632812 C 6.089844 15.554688 6.09375 15.476562 6.101562 15.398438 C 6.132812 15.023438 6.132812 15.023438 6.210938 14.84375 C 6.488281 14.703125 6.894531 14.753906 7.199219 14.753906 C 7.257812 14.753906 7.316406 14.753906 7.375 14.75 C 7.875 14.742188 8.382812 14.78125 8.828125 15.039062 C 8.875 15.136719 8.875 15.136719 8.90625 15.257812 C 8.917969 15.300781 8.929688 15.34375 8.941406 15.390625 C 8.953125 15.429688 8.953125 15.429688 8.960938 15.464844 C 9.003906 15.621094 9.054688 15.769531 9.105469 15.921875 C 9.117188 15.953125 9.125 15.984375 9.136719 16.015625 C 9.144531 16.042969 9.15625 16.074219 9.164062 16.101562 C 9.171875 16.128906 9.183594 16.152344 9.191406 16.179688 C 9.21875 16.261719 9.21875 16.261719 9.296875 16.367188 C 9.4375 16.394531 9.4375 16.394531 9.570312 16.40625 C 9.609375 16.507812 9.648438 16.613281 9.6875 16.71875 C 9.761719 16.699219 9.761719 16.699219 9.839844 16.679688 C 9.972656 16.664062 10.023438 16.667969 10.136719 16.742188 C 10.199219 16.800781 10.265625 16.859375 10.328125 16.917969 C 10.484375 17.03125 10.632812 17.050781 10.820312 17.070312 C 10.886719 17.082031 10.949219 17.09375 11.015625 17.109375 C 11.027344 17.058594 11.027344 17.058594 11.039062 17.007812 C 11.054688 16.945312 11.054688 16.945312 11.070312 16.878906 C 11.082031 16.835938 11.09375 16.792969 11.101562 16.746094 C 11.132812 16.640625 11.132812 16.640625 11.171875 16.601562 C 11.269531 16.589844 11.367188 16.578125 11.464844 16.570312 C 11.585938 16.511719 11.625 16.441406 11.679688 16.316406 C 11.757812 16.105469 11.808594 15.886719 11.863281 15.667969 C 11.882812 15.582031 11.902344 15.5 11.925781 15.414062 C 11.984375 15.171875 12.039062 14.933594 12.070312 14.6875 C 12.089844 14.714844 12.105469 14.738281 12.125 14.765625 C 12.304688 14.976562 12.496094 15.167969 12.75 15.28125 C 12.890625 15.351562 12.890625 15.351562 12.945312 15.457031 C 12.953125 15.488281 12.960938 15.515625 12.96875 15.546875 C 13.027344 15.605469 13.085938 15.601562 13.164062 15.613281 C 13.316406 15.644531 13.40625 15.691406 13.527344 15.785156 C 13.738281 15.9375 13.929688 15.929688 14.179688 15.898438 C 14.277344 15.878906 14.359375 15.855469 14.453125 15.820312 C 14.472656 15.859375 14.496094 15.898438 14.515625 15.9375 C 14.546875 15.976562 14.578125 16.015625 14.609375 16.054688 C 14.734375 16.074219 14.734375 16.074219 14.84375 16.054688 C 14.9375 15.789062 14.945312 15.515625 14.960938 15.234375 C 15.015625 15.238281 15.015625 15.238281 15.074219 15.238281 C 15.199219 15.246094 15.199219 15.246094 15.28125 15.164062 C 15.355469 15.074219 15.355469 15.074219 15.429688 14.960938 C 15.472656 14.945312 15.515625 14.925781 15.5625 14.910156 C 15.726562 14.832031 15.773438 14.765625 15.859375 14.609375 C 15.898438 14.492188 15.902344 14.414062 15.902344 14.289062 C 15.898438 14.238281 15.898438 14.238281 15.898438 14.183594 C 15.898438 14.15625 15.898438 14.128906 15.898438 14.101562 C 15.871094 14.101562 15.847656 14.101562 15.820312 14.101562 C 15.820312 14.074219 15.820312 14.050781 15.820312 14.023438 Z M 15.820312 14.023438 "/>
<path style=" stroke:none;fill-rule:nonzero;fill:rgb(33.333334%,78.823531%,33.333334%);fill-opacity:1;" d="M 6.640625 1.875 C 6.78125 2.003906 6.886719 2.144531 6.992188 2.304688 C 7.011719 2.292969 7.03125 2.28125 7.050781 2.269531 C 7.355469 2.113281 7.671875 2.097656 8.003906 2.175781 C 8.28125 2.273438 8.472656 2.425781 8.613281 2.683594 C 8.796875 3.070312 8.863281 3.46875 8.753906 3.886719 C 8.59375 4.324219 8.285156 4.796875 7.851562 5 C 7.824219 5 7.800781 5 7.773438 5 C 7.785156 5.035156 7.796875 5.066406 7.8125 5.101562 C 7.851562 5.238281 7.863281 5.347656 7.859375 5.488281 C 7.863281 5.550781 7.863281 5.550781 7.863281 5.617188 C 7.851562 5.746094 7.820312 5.855469 7.773438 5.976562 C 7.6875 5.894531 7.621094 5.808594 7.554688 5.710938 C 7.363281 5.453125 7.074219 5.269531 6.757812 5.195312 C 6.503906 5.160156 6.308594 5.207031 6.09375 5.351562 C 6.066406 5.382812 6.039062 5.410156 6.011719 5.441406 C 5.9375 5.507812 5.9375 5.507812 5.800781 5.5 C 5.730469 5.484375 5.660156 5.46875 5.589844 5.449219 C 5.242188 5.371094 4.953125 5.460938 4.648438 5.625 C 4.5 5.726562 4.394531 5.828125 4.296875 5.976562 C 4.304688 6.113281 4.328125 6.226562 4.375 6.355469 C 4.46875 6.621094 4.507812 6.859375 4.507812 7.140625 C 4.511719 7.183594 4.511719 7.183594 4.511719 7.230469 C 4.507812 7.546875 4.40625 7.8125 4.257812 8.085938 C 4.207031 8.074219 4.15625 8.058594 4.101562 8.046875 C 4.121094 7.925781 4.152344 7.828125 4.199219 7.710938 C 4.269531 7.523438 4.277344 7.351562 4.273438 7.152344 C 4.273438 7.117188 4.273438 7.085938 4.273438 7.050781 C 4.265625 6.808594 4.242188 6.589844 4.140625 6.367188 C 4.125 6.332031 4.109375 6.292969 4.09375 6.253906 C 3.933594 6.066406 3.636719 5.957031 3.398438 5.929688 C 3.03125 5.90625 2.683594 5.894531 2.382812 6.132812 C 2.105469 6.386719 1.988281 6.621094 1.96875 6.996094 C 1.972656 7.375 2.132812 7.652344 2.34375 7.96875 C 2.152344 8.066406 1.933594 8.011719 1.738281 7.949219 C 1.441406 7.832031 1.246094 7.640625 1.113281 7.351562 C 1.011719 7.054688 1.003906 6.726562 1.132812 6.4375 C 1.238281 6.25 1.347656 6.117188 1.5625 6.054688 C 1.5625 6.027344 1.5625 6.003906 1.5625 5.976562 C 1.527344 5.960938 1.527344 5.960938 1.492188 5.945312 C 1.332031 5.855469 1.25 5.710938 1.171875 5.546875 C 1.140625 5.367188 1.148438 5.21875 1.214844 5.046875 C 1.355469 4.882812 1.496094 4.726562 1.71875 4.6875 C 1.703125 4.664062 1.6875 4.644531 1.667969 4.621094 C 1.648438 4.59375 1.625 4.566406 1.605469 4.535156 C 1.582031 4.507812 1.5625 4.480469 1.539062 4.449219 C 1.421875 4.289062 1.421875 4.140625 1.445312 3.945312 C 1.511719 3.710938 1.628906 3.589844 1.839844 3.472656 C 2 3.398438 2.128906 3.394531 2.304688 3.398438 C 2.292969 3.367188 2.277344 3.335938 2.261719 3.304688 C 2.238281 3.238281 2.238281 3.238281 2.210938 3.175781 C 2.183594 3.113281 2.183594 3.113281 2.15625 3.050781 C 2.027344 2.71875 2.042969 2.394531 2.1875 2.070312 C 2.332031 1.851562 2.515625 1.667969 2.773438 1.601562 C 3.222656 1.550781 3.515625 1.617188 3.871094 1.886719 C 3.972656 1.972656 4.078125 2.058594 4.179688 2.148438 C 4.1875 2.125 4.199219 2.101562 4.210938 2.078125 C 4.355469 1.816406 4.628906 1.636719 4.910156 1.546875 C 5.519531 1.433594 6.117188 1.542969 6.640625 1.875 Z M 6.640625 1.875 "/>
<path style=" stroke:none;fill-rule:nonzero;fill:rgb(83.92157%,50.588238%,35.294119%);fill-opacity:1;" d="M 7.199219 14.753906 C 7.257812 14.753906 7.316406 14.753906 7.375 14.75 C 7.875 14.742188 8.382812 14.78125 8.828125 15.039062 C 8.875 15.136719 8.875 15.136719 8.90625 15.257812 C 8.917969 15.300781 8.929688 15.34375 8.941406 15.390625 C 8.949219 15.417969 8.957031 15.441406 8.960938 15.464844 C 9.003906 15.621094 9.054688 15.769531 9.105469 15.921875 C 9.117188 15.953125 9.125 15.984375 9.136719 16.015625 C 9.144531 16.042969 9.15625 16.074219 9.164062 16.101562 C 9.171875 16.128906 9.183594 16.152344 9.191406 16.179688 C 9.21875 16.261719 9.21875 16.261719 9.296875 16.367188 C 9.4375 16.394531 9.4375 16.394531 9.570312 16.40625 C 9.609375 16.507812 9.648438 16.613281 9.6875 16.71875 C 9.742188 16.707031 9.792969 16.699219 9.847656 16.6875 C 9.957031 16.675781 10.015625 16.667969 10.113281 16.71875 C 10.179688 16.773438 10.179688 16.773438 10.273438 16.875 C 10.246094 16.902344 10.21875 16.929688 10.1875 16.957031 C 10.113281 17.03125 10.050781 17.105469 9.988281 17.191406 C 9.859375 17.332031 9.746094 17.390625 9.570312 17.460938 C 9.53125 17.476562 9.492188 17.492188 9.453125 17.507812 C 9.179688 17.609375 9.015625 17.625 8.742188 17.53125 C 8.453125 17.445312 8.191406 17.457031 7.921875 17.597656 C 7.875 17.621094 7.828125 17.648438 7.78125 17.671875 C 7.53125 17.796875 7.289062 17.800781 7.011719 17.796875 C 6.78125 17.792969 6.640625 17.835938 6.449219 17.96875 C 6.339844 18.019531 6.285156 18.007812 6.171875 17.96875 C 6.09375 17.90625 6.015625 17.839844 5.9375 17.773438 C 5.609375 17.617188 5.277344 17.683594 4.945312 17.792969 C 4.90625 17.808594 4.90625 17.808594 4.863281 17.820312 C 4.722656 17.871094 4.605469 17.902344 4.453125 17.890625 C 4.582031 17.726562 4.691406 17.605469 4.867188 17.496094 C 5.089844 17.355469 5.179688 17.195312 5.269531 16.949219 C 5.363281 16.714844 5.488281 16.59375 5.707031 16.472656 C 5.917969 16.347656 5.980469 16.164062 6.054688 15.9375 C 6.0625 15.875 6.066406 15.808594 6.074219 15.746094 C 6.078125 15.691406 6.078125 15.691406 6.082031 15.632812 C 6.089844 15.554688 6.09375 15.476562 6.101562 15.398438 C 6.132812 15.023438 6.132812 15.023438 6.210938 14.84375 C 6.488281 14.703125 6.894531 14.753906 7.199219 14.753906 Z M 7.199219 14.753906 "/>
<path style=" stroke:none;fill-rule:nonzero;fill:rgb(89.411765%,67.058825%,56.862748%);fill-opacity:1;" d="M 13.984375 11.5625 C 14.101562 11.652344 14.113281 11.660156 14.140625 11.796875 C 14.230469 12.472656 13.933594 13.132812 13.539062 13.664062 C 13.394531 13.84375 13.222656 13.992188 13.046875 14.140625 C 13.09375 14.132812 13.136719 14.125 13.1875 14.117188 C 13.246094 14.105469 13.308594 14.09375 13.371094 14.085938 C 13.402344 14.078125 13.429688 14.074219 13.460938 14.070312 C 13.921875 13.992188 14.375 13.976562 14.835938 13.980469 C 14.941406 13.980469 15.042969 13.980469 15.144531 13.980469 C 15.207031 13.980469 15.273438 13.980469 15.339844 13.980469 C 15.382812 13.980469 15.382812 13.980469 15.429688 13.980469 C 15.566406 13.980469 15.6875 13.988281 15.820312 14.023438 C 15.820312 14.050781 15.820312 14.074219 15.820312 14.101562 C 15.847656 14.101562 15.871094 14.101562 15.898438 14.101562 C 15.960938 14.226562 15.957031 14.355469 15.9375 14.492188 C 15.878906 14.660156 15.800781 14.804688 15.664062 14.921875 C 15.605469 14.9375 15.605469 14.9375 15.550781 14.953125 C 15.417969 14.992188 15.417969 14.992188 15.355469 15.121094 C 15.273438 15.234375 15.273438 15.234375 15.125 15.269531 C 15.085938 15.269531 15.042969 15.273438 15 15.273438 C 15 15.308594 14.996094 15.339844 14.996094 15.375 C 14.96875 15.867188 14.96875 15.867188 14.84375 16.054688 C 14.71875 16.089844 14.71875 16.089844 14.609375 16.09375 C 14.453125 15.90625 14.453125 15.90625 14.453125 15.820312 C 14.417969 15.839844 14.382812 15.859375 14.34375 15.878906 C 14.136719 15.964844 13.929688 15.976562 13.710938 15.9375 C 13.589844 15.875 13.488281 15.804688 13.378906 15.726562 C 13.25 15.644531 13.15625 15.636719 13.007812 15.625 C 12.933594 15.574219 12.933594 15.574219 12.890625 15.507812 C 12.890625 15.457031 12.890625 15.40625 12.890625 15.351562 C 12.859375 15.34375 12.828125 15.335938 12.792969 15.328125 C 12.515625 15.21875 12.273438 15.015625 12.109375 14.765625 C 12.078125 14.660156 12.078125 14.660156 12.109375 14.570312 C 12.226562 14.480469 12.226562 14.480469 12.34375 14.414062 C 12.214844 14.402344 12.085938 14.386719 11.953125 14.375 C 11.765625 13.890625 11.824219 13.484375 12.027344 13.007812 C 12.3125 12.367188 12.695312 11.871094 13.363281 11.59375 C 13.574219 11.535156 13.769531 11.523438 13.984375 11.5625 Z M 13.984375 11.5625 "/>
<path style=" stroke:none;fill-rule:nonzero;fill:rgb(55.686277%,85.882354%,55.686277%);fill-opacity:1;" d="M 8.171875 10.609375 C 8.34375 10.628906 8.421875 10.671875 8.554688 10.78125 C 8.648438 10.921875 8.640625 11.003906 8.632812 11.171875 C 8.652344 11.179688 8.675781 11.191406 8.695312 11.199219 C 8.828125 11.257812 8.925781 11.308594 9.023438 11.414062 C 9.09375 11.613281 9.097656 11.796875 9.007812 11.988281 C 8.945312 12.070312 8.945312 12.070312 8.867188 12.148438 C 8.816406 12.148438 8.765625 12.148438 8.710938 12.148438 C 8.703125 12.1875 8.691406 12.230469 8.683594 12.269531 C 8.636719 12.4375 8.5625 12.535156 8.4375 12.65625 C 8.257812 12.746094 8.121094 12.746094 7.929688 12.695312 C 7.753906 12.5625 7.695312 12.441406 7.65625 12.226562 C 7.652344 12.136719 7.652344 12.042969 7.65625 11.953125 C 7.628906 11.953125 7.601562 11.953125 7.578125 11.957031 C 7.542969 11.957031 7.507812 11.957031 7.46875 11.957031 C 7.417969 11.960938 7.417969 11.960938 7.367188 11.960938 C 7.257812 11.953125 7.199219 11.933594 7.109375 11.875 C 7 11.742188 6.96875 11.625 6.976562 11.453125 C 7.015625 11.238281 7.105469 11.046875 7.273438 10.902344 C 7.453125 10.78125 7.597656 10.695312 7.816406 10.707031 C 7.996094 10.703125 8.003906 10.628906 8.171875 10.609375 Z M 8.171875 10.609375 "/>
<path style=" stroke:none;fill-rule:nonzero;fill:rgb(89.411765%,66.666669%,56.862748%);fill-opacity:1;" d="M 7.199219 14.753906 C 7.257812 14.753906 7.316406 14.753906 7.375 14.75 C 7.886719 14.742188 8.367188 14.792969 8.828125 15.039062 C 8.824219 15.253906 8.738281 15.34375 8.589844 15.488281 C 8.515625 15.546875 8.515625 15.546875 8.429688 15.585938 C 8.347656 15.621094 8.347656 15.621094 8.328125 15.722656 C 8.3125 15.753906 8.296875 15.789062 8.28125 15.820312 C 8.191406 15.847656 8.101562 15.875 8.007812 15.898438 C 7.976562 15.925781 7.945312 15.953125 7.914062 15.980469 C 7.769531 16.085938 7.636719 16.097656 7.460938 16.09375 C 7.339844 16.058594 7.339844 16.058594 7.265625 16.015625 C 7.253906 16.066406 7.238281 16.117188 7.226562 16.171875 C 7.15625 16.199219 7.15625 16.199219 7.070312 16.210938 C 6.976562 16.144531 6.953125 16.097656 6.925781 15.988281 C 6.917969 15.949219 6.914062 15.910156 6.90625 15.871094 C 6.902344 15.832031 6.894531 15.792969 6.886719 15.753906 C 6.882812 15.722656 6.878906 15.695312 6.875 15.664062 C 6.84375 15.660156 6.8125 15.65625 6.78125 15.648438 C 6.730469 15.636719 6.730469 15.636719 6.679688 15.625 C 6.667969 15.597656 6.65625 15.574219 6.644531 15.546875 C 6.628906 15.519531 6.617188 15.496094 6.601562 15.46875 C 6.566406 15.464844 6.527344 15.460938 6.488281 15.453125 C 6.367188 15.429688 6.367188 15.429688 6.277344 15.328125 C 6.207031 15.183594 6.175781 15.082031 6.171875 14.921875 C 6.257812 14.8125 6.289062 14.804688 6.433594 14.777344 C 6.6875 14.757812 6.945312 14.753906 7.199219 14.753906 Z M 7.199219 14.753906 "/>
<path style=" stroke:none;fill-rule:nonzero;fill:rgb(33.725491%,78.431374%,33.333334%);fill-opacity:1;" d="M 8.929688 17.554688 C 9.066406 17.609375 9.203125 17.664062 9.335938 17.734375 C 9.335938 17.761719 9.335938 17.785156 9.335938 17.8125 C 9.128906 17.859375 9.011719 17.855469 8.8125 17.777344 C 8.542969 17.671875 8.34375 17.640625 8.070312 17.746094 C 7.945312 17.804688 7.820312 17.867188 7.695312 17.929688 C 7.589844 17.964844 7.523438 17.972656 7.414062 17.976562 C 7.382812 17.976562 7.351562 17.976562 7.320312 17.976562 C 7.253906 17.980469 7.1875 17.980469 7.121094 17.980469 C 6.886719 17.988281 6.726562 18.046875 6.523438 18.164062 C 6.363281 18.253906 6.277344 18.253906 6.09375 18.203125 C 6.019531 18.140625 6.019531 18.140625 5.941406 18.066406 C 5.808594 17.945312 5.71875 17.882812 5.539062 17.878906 C 5.332031 17.902344 5.132812 17.96875 4.933594 18.035156 C 4.792969 18.078125 4.652344 18.113281 4.507812 18.144531 C 4.324219 18.183594 4.144531 18.238281 3.96875 18.300781 C 3.484375 18.464844 2.996094 18.558594 2.484375 18.5625 C 2.441406 18.5625 2.441406 18.5625 2.394531 18.5625 C 2.332031 18.5625 2.269531 18.5625 2.210938 18.5625 C 2.113281 18.5625 2.019531 18.5625 1.921875 18.5625 C 1.863281 18.5625 1.800781 18.5625 1.742188 18.5625 C 1.699219 18.5625 1.699219 18.5625 1.65625 18.566406 C 1.453125 18.5625 1.453125 18.5625 1.367188 18.476562 C 1.382812 18.394531 1.382812 18.394531 1.40625 18.320312 C 1.441406 18.320312 1.441406 18.320312 1.480469 18.320312 C 2.417969 18.335938 3.300781 18.292969 4.175781 17.933594 C 4.339844 17.875 4.507812 17.855469 4.679688 17.832031 C 4.808594 17.8125 4.917969 17.773438 5.042969 17.730469 C 5.320312 17.632812 5.59375 17.605469 5.875 17.703125 C 5.957031 17.757812 6.023438 17.8125 6.09375 17.882812 C 6.203125 17.980469 6.203125 17.980469 6.324219 17.972656 C 6.449219 17.933594 6.449219 17.933594 6.566406 17.851562 C 6.742188 17.746094 6.910156 17.757812 7.109375 17.761719 C 7.390625 17.757812 7.605469 17.730469 7.851562 17.59375 C 8.226562 17.394531 8.53125 17.414062 8.929688 17.554688 Z M 8.929688 17.554688 "/>
<path style=" stroke:none;fill-rule:nonzero;fill:rgb(94.509804%,83.137256%,77.64706%);fill-opacity:1;" d="M 15.46875 14.414062 C 15.46875 14.476562 15.46875 14.542969 15.46875 14.609375 C 15.429688 14.628906 15.386719 14.648438 15.347656 14.671875 C 15.292969 14.699219 15.238281 14.726562 15.1875 14.753906 C 15.160156 14.765625 15.132812 14.78125 15.105469 14.792969 C 14.871094 14.914062 14.742188 15.050781 14.652344 15.304688 C 14.582031 15.460938 14.582031 15.460938 14.476562 15.515625 C 14.375 15.507812 14.375 15.507812 14.273438 15.453125 C 14.136719 15.386719 14.054688 15.382812 13.902344 15.375 C 13.738281 15.367188 13.6875 15.363281 13.550781 15.261719 C 13.476562 15.15625 13.476562 15.15625 13.4375 15.070312 C 13.382812 14.96875 13.308594 14.960938 13.203125 14.921875 C 13.132812 14.871094 13.132812 14.871094 13.085938 14.804688 C 13.078125 14.699219 13.078125 14.699219 13.085938 14.609375 C 13.828125 14.175781 14.65625 14.273438 15.46875 14.414062 Z M 15.46875 14.414062 "/>
<path style=" stroke:none;fill-rule:nonzero;fill:rgb(94.509804%,83.137256%,77.64706%);fill-opacity:1;" d="M 13.476562 12.148438 C 13.570312 12.191406 13.570312 12.191406 13.632812 12.265625 C 13.65625 12.394531 13.65625 12.394531 13.632812 12.539062 C 13.570312 12.621094 13.503906 12.699219 13.4375 12.773438 C 13.425781 12.8125 13.414062 12.855469 13.402344 12.894531 C 13.359375 13.007812 13.359375 13.007812 13.25 13.074219 C 13.117188 13.171875 13.082031 13.230469 13.007812 13.375 C 12.910156 13.566406 12.839844 13.679688 12.65625 13.789062 C 12.507812 13.804688 12.507812 13.804688 12.382812 13.789062 C 12.355469 13.761719 12.332031 13.738281 12.304688 13.710938 C 12.308594 13.613281 12.324219 13.53125 12.34375 13.4375 C 12.351562 13.398438 12.359375 13.359375 12.367188 13.316406 C 12.441406 13.027344 12.53125 12.871094 12.765625 12.6875 C 12.875 12.597656 12.933594 12.496094 13.003906 12.375 C 13.125 12.183594 13.253906 12.117188 13.476562 12.148438 Z M 13.476562 12.148438 "/>
<path style=" stroke:none;fill-rule:nonzero;fill:rgb(94.509804%,83.137256%,77.64706%);fill-opacity:1;" d="M 7.808594 15.015625 C 7.832031 15.023438 7.859375 15.027344 7.886719 15.03125 C 8.074219 15.070312 8.074219 15.070312 8.164062 15.117188 C 8.148438 15.308594 8.070312 15.382812 7.929688 15.507812 C 7.90625 15.535156 7.882812 15.566406 7.859375 15.59375 C 7.734375 15.695312 7.621094 15.6875 7.460938 15.703125 C 7.421875 15.730469 7.382812 15.753906 7.34375 15.78125 C 7.246094 15.78125 7.246094 15.78125 7.148438 15.742188 C 7.03125 15.550781 7.03125 15.550781 7.03125 15.429688 C 7.007812 15.421875 6.984375 15.414062 6.960938 15.40625 C 6.628906 15.304688 6.628906 15.304688 6.523438 15.195312 C 6.523438 15.15625 6.523438 15.117188 6.523438 15.078125 C 6.628906 15.058594 6.730469 15.039062 6.835938 15.019531 C 6.878906 15.011719 6.878906 15.011719 6.925781 15.003906 C 7.230469 14.945312 7.503906 14.953125 7.808594 15.015625 Z M 7.808594 15.015625 "/>
<path style=" stroke:none;fill-rule:nonzero;fill:rgb(12.156863%,72.156864%,12.156863%);fill-opacity:1;" d="M 6.40625 3.085938 C 6.707031 3.105469 7.007812 3.125 7.230469 3.34375 C 7.332031 3.519531 7.308594 3.636719 7.265625 3.828125 C 7.257812 3.851562 7.25 3.878906 7.242188 3.902344 C 7.222656 4.003906 7.230469 4.09375 7.234375 4.195312 C 7.238281 4.347656 7.234375 4.4375 7.132812 4.554688 C 7.019531 4.660156 6.988281 4.683594 6.839844 4.695312 C 6.71875 4.6875 6.71875 4.6875 6.601562 4.609375 C 6.613281 4.558594 6.628906 4.507812 6.640625 4.453125 C 6.757812 4.453125 6.871094 4.453125 6.992188 4.453125 C 7 4.121094 7 4.121094 6.953125 3.789062 C 6.992188 3.761719 7.03125 3.738281 7.070312 3.710938 C 7.085938 3.605469 7.089844 3.542969 7.03125 3.453125 C 6.914062 3.371094 6.789062 3.355469 6.652344 3.332031 C 6.613281 3.324219 6.613281 3.324219 6.570312 3.316406 C 6.503906 3.304688 6.433594 3.292969 6.367188 3.28125 C 6.378906 3.21875 6.394531 3.152344 6.40625 3.085938 Z M 6.40625 3.085938 "/>
<path style=" stroke:none;fill-rule:nonzero;fill:rgb(78.823531%,34.901962%,14.901961%);fill-opacity:1;" d="M 10.195312 16.914062 C 10.324219 16.9375 10.429688 16.96875 10.546875 17.03125 C 10.546875 17.058594 10.546875 17.082031 10.546875 17.109375 C 10.492188 17.144531 10.4375 17.179688 10.378906 17.214844 C 10.300781 17.273438 10.253906 17.339844 10.195312 17.417969 C 10.015625 17.632812 9.761719 17.71875 9.492188 17.773438 C 9.316406 17.757812 9.207031 17.714844 9.0625 17.617188 C 9.242188 17.519531 9.4375 17.464844 9.632812 17.398438 C 9.828125 17.316406 9.957031 17.203125 10.089844 17.039062 C 10.121094 17.003906 10.121094 17.003906 10.152344 16.96875 C 10.164062 16.949219 10.179688 16.933594 10.195312 16.914062 Z M 10.195312 16.914062 "/>
<path style=" stroke:none;fill-rule:nonzero;fill:rgb(34.117648%,78.823531%,34.117648%);fill-opacity:1;" d="M 9.101562 2.5 C 9.191406 2.488281 9.191406 2.488281 9.296875 2.5 C 9.359375 2.570312 9.359375 2.570312 9.414062 2.664062 C 9.632812 3.019531 9.976562 3.296875 10.390625 3.398438 C 10.574219 3.429688 10.753906 3.453125 10.9375 3.476562 C 10.960938 3.550781 10.960938 3.550781 10.976562 3.632812 C 10.957031 3.652344 10.957031 3.652344 10.9375 3.671875 C 10.363281 3.667969 9.878906 3.511719 9.460938 3.113281 C 9.308594 2.953125 9.101562 2.730469 9.101562 2.5 Z M 9.101562 2.5 "/>
<path style=" stroke:none;fill-rule:nonzero;fill:rgb(34.509805%,79.215688%,34.509805%);fill-opacity:1;" d="M 3.671875 10.859375 C 3.828125 10.859375 3.828125 10.859375 3.910156 10.941406 C 3.953125 10.996094 3.953125 10.996094 3.996094 11.050781 C 4.027344 11.09375 4.058594 11.132812 4.089844 11.171875 C 4.121094 11.210938 4.148438 11.25 4.179688 11.289062 C 4.214844 11.332031 4.214844 11.332031 4.253906 11.375 C 4.40625 11.554688 4.515625 11.75 4.625 11.957031 C 4.636719 11.984375 4.652344 12.011719 4.664062 12.039062 C 4.75 12.207031 4.789062 12.351562 4.804688 12.539062 C 4.707031 12.558594 4.707031 12.558594 4.609375 12.578125 C 4.601562 12.550781 4.59375 12.519531 4.582031 12.492188 C 4.417969 11.964844 4.160156 11.574219 3.792969 11.167969 C 3.734375 11.105469 3.683594 11.042969 3.632812 10.976562 C 3.644531 10.9375 3.660156 10.898438 3.671875 10.859375 Z M 3.671875 10.859375 "/>
<path style=" stroke:none;fill-rule:nonzero;fill:rgb(12.54902%,72.156864%,12.54902%);fill-opacity:1;" d="M 4.21875 2.03125 C 4.246094 2.113281 4.261719 2.167969 4.238281 2.253906 C 4.210938 2.371094 4.214844 2.480469 4.214844 2.601562 C 4.214844 2.652344 4.214844 2.699219 4.214844 2.753906 C 4.214844 2.78125 4.214844 2.804688 4.214844 2.832031 C 4.214844 2.910156 4.214844 2.988281 4.214844 3.070312 C 4.214844 3.363281 4.222656 3.652344 4.257812 3.945312 C 4.179688 3.964844 4.179688 3.964844 4.101562 3.984375 C 3.953125 3.664062 3.976562 3.304688 3.976562 2.960938 C 3.976562 2.878906 3.976562 2.800781 3.976562 2.71875 C 3.976562 2.667969 3.976562 2.617188 3.976562 2.566406 C 3.976562 2.519531 3.976562 2.472656 3.976562 2.425781 C 3.984375 2.308594 4.003906 2.246094 4.0625 2.148438 C 4.101562 2.148438 4.140625 2.148438 4.179688 2.148438 C 4.191406 2.109375 4.207031 2.070312 4.21875 2.03125 Z M 4.21875 2.03125 "/>
<path style=" stroke:none;fill-rule:nonzero;fill:rgb(78.823531%,34.901962%,15.294118%);fill-opacity:1;" d="M 13.515625 16.445312 C 13.597656 16.460938 13.597656 16.460938 13.671875 16.484375 C 13.707031 16.980469 13.535156 17.488281 13.320312 17.929688 C 13.300781 17.96875 13.300781 17.96875 13.28125 18.011719 C 13.246094 18.078125 13.246094 18.078125 13.164062 18.164062 C 13.042969 18.167969 13.042969 18.167969 12.929688 18.164062 C 12.949219 18.125 12.96875 18.089844 12.992188 18.050781 C 13.238281 17.582031 13.445312 17.089844 13.472656 16.550781 C 13.476562 16.484375 13.476562 16.484375 13.515625 16.445312 Z M 13.515625 16.445312 "/>
<path style=" stroke:none;fill-rule:nonzero;fill:rgb(34.509805%,79.215688%,34.509805%);fill-opacity:1;" d="M 3.875 9.191406 C 3.898438 9.199219 3.921875 9.210938 3.945312 9.21875 C 3.933594 9.332031 3.914062 9.367188 3.824219 9.441406 C 3.332031 9.746094 2.8125 10.011719 2.226562 10 C 2.257812 9.925781 2.257812 9.925781 2.304688 9.84375 C 2.421875 9.796875 2.535156 9.761719 2.65625 9.726562 C 3.042969 9.609375 3.398438 9.484375 3.714844 9.230469 C 3.789062 9.179688 3.789062 9.179688 3.875 9.191406 Z M 3.875 9.191406 "/>
<path style=" stroke:none;fill-rule:nonzero;fill:rgb(19.607843%,19.607843%,19.607843%);fill-opacity:1;" d="M 17.773438 10.46875 C 17.789062 10.554688 17.789062 10.554688 17.773438 10.664062 C 17.691406 10.734375 17.617188 10.792969 17.527344 10.851562 C 17.476562 10.882812 17.425781 10.917969 17.375 10.953125 C 17.351562 10.96875 17.328125 10.984375 17.300781 11.003906 C 17.125 11.125 16.960938 11.265625 16.796875 11.40625 C 16.746094 11.378906 16.695312 11.355469 16.640625 11.328125 C 16.671875 11.140625 16.792969 11.058594 16.933594 10.941406 C 16.957031 10.921875 16.984375 10.902344 17.007812 10.878906 C 17.523438 10.453125 17.523438 10.453125 17.773438 10.46875 Z M 17.773438 10.46875 "/>
<path style=" stroke:none;fill-rule:nonzero;fill:rgb(78.823531%,34.901962%,15.294118%);fill-opacity:1;" d="M 15.742188 17.070312 C 15.855469 17.109375 15.894531 17.140625 15.953125 17.246094 C 15.96875 17.285156 15.984375 17.324219 16.003906 17.363281 C 16.199219 17.773438 16.472656 18.035156 16.875 18.242188 C 16.832031 18.304688 16.832031 18.304688 16.757812 18.359375 C 16.550781 18.359375 16.433594 18.265625 16.292969 18.128906 C 16.269531 18.109375 16.25 18.09375 16.230469 18.070312 C 15.996094 17.84375 15.808594 17.578125 15.703125 17.265625 C 15.71875 17.15625 15.71875 17.15625 15.742188 17.070312 Z M 15.742188 17.070312 "/>
<path style=" stroke:none;fill-rule:nonzero;fill:rgb(19.607843%,19.607843%,19.607843%);fill-opacity:1;" d="M 17.695312 12.070312 C 17.695312 12.132812 17.695312 12.199219 17.695312 12.265625 C 17.46875 12.324219 17.242188 12.371094 17.007812 12.40625 C 16.976562 12.414062 16.945312 12.417969 16.914062 12.421875 C 16.730469 12.453125 16.554688 12.464844 16.367188 12.460938 C 16.34375 12.386719 16.34375 12.386719 16.328125 12.304688 C 16.429688 12.203125 16.488281 12.207031 16.625 12.183594 C 16.671875 12.179688 16.714844 12.171875 16.761719 12.164062 C 16.808594 12.15625 16.855469 12.152344 16.902344 12.144531 C 16.949219 12.136719 16.992188 12.128906 17.039062 12.121094 C 17.261719 12.089844 17.472656 12.058594 17.695312 12.070312 Z M 17.695312 12.070312 "/>
<path style=" stroke:none;fill-rule:nonzero;fill:rgb(18.82353%,18.82353%,18.82353%);fill-opacity:1;" d="M 16.367188 9.882812 C 16.417969 9.882812 16.46875 9.882812 16.523438 9.882812 C 16.550781 9.945312 16.550781 9.945312 16.5625 10.039062 C 16.519531 10.136719 16.476562 10.226562 16.425781 10.316406 C 16.410156 10.34375 16.398438 10.367188 16.382812 10.394531 C 16.101562 10.898438 16.101562 10.898438 15.976562 11.015625 C 15.871094 11.027344 15.871094 11.027344 15.78125 11.015625 C 15.800781 10.804688 15.875 10.667969 15.984375 10.492188 C 16.003906 10.46875 16.019531 10.441406 16.035156 10.414062 C 16.066406 10.363281 16.097656 10.3125 16.128906 10.265625 C 16.164062 10.207031 16.199219 10.148438 16.234375 10.085938 C 16.28125 10.003906 16.28125 10.003906 16.367188 9.882812 Z M 16.367188 9.882812 "/>
<path style=" stroke:none;fill-rule:nonzero;fill:rgb(33.333334%,78.823531%,32.941177%);fill-opacity:1;" d="M 17.578125 17.34375 C 17.601562 17.347656 17.628906 17.355469 17.652344 17.359375 C 18.082031 17.445312 18.511719 17.46875 18.945312 17.460938 C 18.945312 17.523438 18.945312 17.589844 18.945312 17.65625 C 18.796875 17.730469 18.613281 17.703125 18.449219 17.703125 C 18.410156 17.703125 18.371094 17.703125 18.332031 17.703125 C 18.117188 17.703125 17.933594 17.695312 17.734375 17.617188 C 17.578125 17.457031 17.578125 17.457031 17.578125 17.34375 Z M 17.578125 17.34375 "/>
<path style=" stroke:none;fill-rule:nonzero;fill:rgb(78.823531%,34.901962%,15.294118%);fill-opacity:1;" d="M 14.453125 15.820312 C 14.460938 15.863281 14.464844 15.90625 14.472656 15.949219 C 14.53125 16.488281 14.53125 16.488281 14.765625 16.953125 C 14.765625 17.019531 14.765625 17.082031 14.765625 17.148438 C 14.714844 17.148438 14.664062 17.148438 14.609375 17.148438 C 14.371094 16.699219 14.277344 16.375 14.296875 15.859375 C 14.375 15.820312 14.375 15.820312 14.453125 15.820312 Z M 14.453125 15.820312 "/>
<path style=" stroke:none;fill-rule:nonzero;fill:rgb(34.117648%,78.823531%,34.117648%);fill-opacity:1;" d="M 7.773438 6.5625 C 7.785156 6.613281 7.800781 6.664062 7.8125 6.71875 C 7.757812 6.730469 7.757812 6.730469 7.699219 6.746094 C 7.414062 6.816406 7.152344 6.898438 6.890625 7.035156 C 6.777344 7.078125 6.714844 7.0625 6.601562 7.03125 C 6.621094 6.960938 6.621094 6.960938 6.679688 6.875 C 6.78125 6.820312 6.878906 6.773438 6.984375 6.730469 C 7.011719 6.71875 7.039062 6.707031 7.070312 6.695312 C 7.308594 6.59375 7.507812 6.558594 7.773438 6.5625 Z M 7.773438 6.5625 "/>
<path style=" stroke:none;fill-rule:nonzero;fill:rgb(78.823531%,35.294119%,15.294118%);fill-opacity:1;" d="M 6.367188 16.914062 C 6.417969 16.914062 6.46875 16.914062 6.523438 16.914062 C 6.511719 17.222656 6.355469 17.492188 6.132812 17.703125 C 6.015625 17.773438 6.015625 17.773438 5.882812 17.746094 C 5.851562 17.730469 5.816406 17.710938 5.78125 17.695312 C 5.808594 17.675781 5.835938 17.65625 5.863281 17.636719 C 6.097656 17.433594 6.238281 17.191406 6.367188 16.914062 Z M 6.367188 16.914062 "/>
<path style=" stroke:none;fill-rule:nonzero;fill:rgb(56.470591%,85.490197%,55.29412%);fill-opacity:1;" d="M 11.757812 6.796875 C 11.984375 6.8125 12.144531 6.867188 12.304688 7.03125 C 12.34375 7.140625 12.34375 7.140625 12.34375 7.226562 C 12.332031 7.238281 12.316406 7.253906 12.304688 7.265625 C 12.035156 7.265625 11.90625 7.136719 11.71875 6.953125 C 11.730469 6.902344 11.746094 6.851562 11.757812 6.796875 Z M 11.757812 6.796875 "/>
<path style=" stroke:none;fill-rule:nonzero;fill:rgb(78.823531%,34.901962%,14.901961%);fill-opacity:1;" d="M 7.265625 16.015625 C 7.304688 16.015625 7.34375 16.015625 7.382812 16.015625 C 7.40625 16.664062 7.40625 16.664062 7.265625 16.914062 C 7.183594 16.941406 7.183594 16.941406 7.109375 16.953125 C 7.058594 16.800781 7.09375 16.726562 7.15625 16.578125 C 7.21875 16.398438 7.238281 16.207031 7.265625 16.015625 Z M 7.265625 16.015625 "/>
<path style=" stroke:none;fill-rule:nonzero;fill:rgb(78.823531%,34.901962%,15.294118%);fill-opacity:1;" d="M 10.273438 11.09375 C 10.347656 11.097656 10.347656 11.097656 10.429688 11.132812 C 10.445312 11.164062 10.464844 11.195312 10.480469 11.230469 C 10.542969 11.34375 10.542969 11.34375 10.691406 11.359375 C 10.753906 11.363281 10.753906 11.363281 10.820312 11.367188 C 10.84375 11.441406 10.84375 11.441406 10.859375 11.523438 C 10.820312 11.5625 10.820312 11.5625 10.675781 11.578125 C 10.550781 11.574219 10.476562 11.554688 10.375 11.480469 C 10.265625 11.355469 10.238281 11.292969 10.234375 11.132812 C 10.246094 11.121094 10.261719 11.105469 10.273438 11.09375 Z M 10.273438 11.09375 "/>
<path style=" stroke:none;fill-rule:nonzero;fill:rgb(78.823531%,34.901962%,14.901961%);fill-opacity:1;" d="M 10.898438 9.609375 C 10.980469 9.59375 10.980469 9.59375 11.09375 9.609375 C 11.191406 9.679688 11.28125 9.757812 11.367188 9.84375 C 11.355469 9.882812 11.339844 9.921875 11.328125 9.960938 C 11.132812 9.945312 11.035156 9.859375 10.898438 9.726562 C 10.898438 9.6875 10.898438 9.648438 10.898438 9.609375 Z M 10.898438 9.609375 "/>
<path style=" stroke:none;fill-rule:nonzero;fill:rgb(81.176472%,53.333336%,36.470589%);fill-opacity:1;" d="M 5.546875 11.289062 C 5.597656 11.300781 5.648438 11.316406 5.703125 11.328125 C 5.632812 11.519531 5.632812 11.519531 5.546875 11.5625 C 5.546875 11.472656 5.546875 11.382812 5.546875 11.289062 Z M 5.546875 11.289062 "/>
</g>
</svg>
