<?xml version="1.0" encoding="UTF-8"?>
<svg xmlns="http://www.w3.org/2000/svg" xmlns:xlink="http://www.w3.org/1999/xlink" width="20px" height="20px" viewBox="0 0 20 20" version="1.1" fill="white">
<path d="M 7.558594 -0.0078125 C 7.601562 -0.0078125 7.644531 -0.0078125 7.691406 -0.0078125 C 7.738281 -0.0078125 7.789062 -0.0078125 7.839844 -0.0078125 C 7.890625 -0.0078125 7.941406 -0.0078125 7.992188 -0.0078125 C 8.164062 -0.0078125 8.332031 -0.0117188 8.503906 -0.0117188 C 8.5625 -0.0117188 8.621094 -0.0117188 8.679688 -0.0117188 C 8.921875 -0.0117188 9.167969 -0.0117188 9.410156 -0.0117188 C 9.761719 -0.015625 10.109375 -0.015625 10.457031 -0.015625 C 10.703125 -0.0195312 10.949219 -0.0195312 11.195312 -0.0195312 C 11.339844 -0.0195312 11.488281 -0.0195312 11.632812 -0.0234375 C 11.773438 -0.0234375 11.910156 -0.0234375 12.050781 -0.0234375 C 12.125 -0.0234375 12.199219 -0.0234375 12.273438 -0.0234375 C 12.578125 -0.0234375 12.789062 0.0351562 13.046875 0.195312 C 13.082031 0.21875 13.117188 0.238281 13.152344 0.261719 C 13.429688 0.542969 13.53125 0.847656 13.535156 1.234375 C 13.527344 1.542969 13.421875 1.796875 13.214844 2.03125 C 13.078125 2.152344 12.933594 2.222656 12.773438 2.304688 C 12.757812 2.898438 12.75 3.492188 12.742188 4.082031 C 12.738281 4.359375 12.734375 4.632812 12.730469 4.910156 C 12.632812 6.527344 12.632812 6.527344 13.285156 7.949219 C 13.417969 8.121094 13.511719 8.3125 13.617188 8.5 C 13.65625 8.574219 13.699219 8.648438 13.742188 8.722656 C 13.875 8.957031 14.007812 9.195312 14.140625 9.433594 C 14.316406 9.746094 14.492188 10.058594 14.667969 10.371094 C 14.867188 10.722656 15.066406 11.078125 15.265625 11.433594 C 15.417969 11.703125 15.570312 11.976562 15.722656 12.246094 C 15.921875 12.597656 16.121094 12.953125 16.320312 13.308594 C 16.472656 13.578125 16.625 13.851562 16.777344 14.121094 C 16.863281 14.269531 16.945312 14.421875 17.03125 14.570312 C 17.054688 14.609375 17.078125 14.652344 17.101562 14.691406 C 17.238281 14.9375 17.378906 15.1875 17.515625 15.433594 C 17.554688 15.507812 17.597656 15.578125 17.636719 15.652344 C 18.0625 16.402344 18.261719 17.128906 18.054688 17.988281 C 17.800781 18.75 17.332031 19.355469 16.625 19.734375 C 16.304688 19.890625 15.972656 20.003906 15.617188 20.003906 C 15.554688 20.003906 15.554688 20.003906 15.492188 20.003906 C 15.449219 20.003906 15.40625 20.003906 15.359375 20.003906 C 15.3125 20.007812 15.265625 20.007812 15.214844 20.007812 C 15.085938 20.007812 14.953125 20.007812 14.820312 20.007812 C 14.679688 20.007812 14.539062 20.007812 14.398438 20.007812 C 14.054688 20.007812 13.714844 20.007812 13.371094 20.007812 C 13.210938 20.007812 13.050781 20.007812 12.890625 20.011719 C 12.351562 20.011719 11.816406 20.011719 11.28125 20.011719 C 11.140625 20.011719 11.003906 20.011719 10.863281 20.011719 C 10.828125 20.011719 10.796875 20.011719 10.757812 20.011719 C 10.199219 20.011719 9.640625 20.011719 9.082031 20.015625 C 8.507812 20.015625 7.933594 20.015625 7.359375 20.015625 C 7.035156 20.015625 6.714844 20.015625 6.390625 20.019531 C 6.117188 20.019531 5.84375 20.019531 5.566406 20.019531 C 5.425781 20.019531 5.289062 20.019531 5.148438 20.019531 C 4.167969 20.023438 3.402344 19.925781 2.65625 19.21875 C 2.128906 18.679688 1.859375 17.925781 1.863281 17.183594 C 1.878906 16.472656 2.199219 15.921875 2.539062 15.3125 C 2.558594 15.273438 2.582031 15.234375 2.601562 15.195312 C 2.726562 14.972656 2.855469 14.75 2.980469 14.527344 C 3.09375 14.328125 3.207031 14.128906 3.320312 13.925781 C 3.515625 13.574219 3.710938 13.226562 3.910156 12.878906 C 4.066406 12.601562 4.21875 12.328125 4.375 12.050781 C 4.570312 11.699219 4.765625 11.351562 4.964844 11.003906 C 5.121094 10.726562 5.273438 10.453125 5.429688 10.175781 C 5.625 9.824219 5.820312 9.476562 6.019531 9.128906 C 6.195312 8.8125 6.371094 8.5 6.546875 8.1875 C 6.570312 8.148438 6.589844 8.113281 6.609375 8.074219 C 6.632812 8.035156 6.652344 8 6.671875 7.957031 C 6.734375 7.851562 6.800781 7.75 6.871094 7.644531 C 7.257812 7.070312 7.296875 6.574219 7.285156 5.894531 C 7.285156 5.792969 7.285156 5.6875 7.285156 5.585938 C 7.289062 5.371094 7.285156 5.15625 7.285156 4.941406 C 7.28125 4.691406 7.28125 4.445312 7.28125 4.199219 C 7.285156 3.957031 7.285156 3.71875 7.28125 3.476562 C 7.28125 3.375 7.28125 3.273438 7.28125 3.171875 C 7.28125 3.03125 7.28125 2.890625 7.277344 2.75 C 7.277344 2.707031 7.28125 2.664062 7.28125 2.621094 C 7.277344 2.503906 7.269531 2.414062 7.226562 2.304688 C 7.132812 2.222656 7.042969 2.171875 6.933594 2.121094 C 6.691406 1.996094 6.574219 1.730469 6.484375 1.484375 C 6.4375 1.105469 6.460938 0.789062 6.679688 0.46875 C 6.703125 0.433594 6.722656 0.398438 6.746094 0.363281 C 6.972656 0.140625 7.242188 -0.00390625 7.558594 -0.0078125 Z M 7.382812 0.898438 C 7.285156 1.042969 7.273438 1.160156 7.304688 1.328125 C 7.410156 1.464844 7.488281 1.53125 7.65625 1.5625 C 7.730469 1.566406 7.804688 1.570312 7.882812 1.574219 C 7.925781 1.574219 7.96875 1.578125 8.011719 1.578125 C 8.101562 1.582031 8.191406 1.582031 8.28125 1.585938 C 8.324219 1.585938 8.367188 1.589844 8.414062 1.589844 C 8.472656 1.59375 8.472656 1.59375 8.53125 1.59375 C 8.632812 1.601562 8.632812 1.601562 8.75 1.640625 C 8.789062 1.753906 8.792969 1.832031 8.792969 1.953125 C 8.792969 2.003906 8.792969 2.003906 8.792969 2.054688 C 8.789062 2.148438 8.789062 2.148438 8.75 2.265625 C 8.609375 2.3125 8.476562 2.320312 8.332031 2.328125 C 8.304688 2.328125 8.277344 2.328125 8.25 2.332031 C 8.183594 2.335938 8.113281 2.339844 8.046875 2.34375 C 8.046875 2.367188 8.046875 2.394531 8.046875 2.417969 C 8.054688 3.023438 8.058594 3.628906 8.058594 4.234375 C 8.058594 4.527344 8.0625 4.820312 8.066406 5.113281 C 8.070312 5.367188 8.070312 5.621094 8.070312 5.878906 C 8.070312 6.011719 8.070312 6.148438 8.074219 6.28125 C 8.085938 7.039062 7.953125 7.542969 7.53125 8.171875 C 7.414062 8.351562 7.3125 8.542969 7.207031 8.730469 C 7.164062 8.804688 7.125 8.878906 7.082031 8.953125 C 6.945312 9.191406 6.8125 9.429688 6.679688 9.667969 C 6.484375 10.019531 6.289062 10.367188 6.089844 10.714844 C 5.90625 11.039062 5.726562 11.363281 5.542969 11.6875 C 5.445312 11.863281 5.347656 12.039062 5.246094 12.210938 C 5.230469 12.234375 5.214844 12.261719 5.199219 12.289062 C 5.164062 12.351562 5.125 12.417969 5.085938 12.480469 C 5.023438 12.578125 5.023438 12.578125 5.078125 12.695312 C 5.152344 12.730469 5.152344 12.730469 5.242188 12.746094 C 5.277344 12.753906 5.3125 12.761719 5.347656 12.769531 C 5.386719 12.777344 5.421875 12.789062 5.457031 12.796875 C 5.492188 12.804688 5.527344 12.8125 5.5625 12.820312 C 6.0625 12.933594 6.546875 12.984375 7.054688 12.980469 C 7.097656 12.980469 7.097656 12.980469 7.144531 12.980469 C 7.597656 12.980469 8.035156 12.960938 8.476562 12.851562 C 8.527344 12.839844 8.527344 12.839844 8.574219 12.828125 C 9.136719 12.6875 9.660156 12.484375 10.183594 12.242188 C 11.3125 11.710938 12.417969 11.410156 13.667969 11.382812 C 13.726562 11.378906 13.785156 11.378906 13.84375 11.378906 C 13.980469 11.375 14.121094 11.371094 14.257812 11.367188 C 14.101562 11.050781 13.945312 10.742188 13.765625 10.4375 C 13.726562 10.367188 13.683594 10.296875 13.644531 10.222656 C 13.625 10.1875 13.601562 10.152344 13.582031 10.113281 C 13.46875 9.917969 13.359375 9.71875 13.246094 9.523438 C 13.214844 9.460938 13.214844 9.460938 13.179688 9.398438 C 13.085938 9.230469 12.992188 9.0625 12.898438 8.898438 C 12.851562 8.8125 12.804688 8.726562 12.757812 8.644531 C 12.714844 8.566406 12.667969 8.488281 12.625 8.410156 C 12.59375 8.355469 12.59375 8.355469 12.5625 8.296875 C 12.542969 8.261719 12.523438 8.222656 12.503906 8.183594 C 12.445312 8.085938 12.382812 7.992188 12.316406 7.902344 C 11.941406 7.367188 11.929688 6.863281 11.941406 6.226562 C 11.941406 6.089844 11.941406 5.953125 11.941406 5.816406 C 11.941406 5.558594 11.941406 5.300781 11.945312 5.042969 C 11.945312 4.746094 11.945312 4.453125 11.945312 4.15625 C 11.945312 3.554688 11.949219 2.949219 11.953125 2.34375 C 11.890625 2.339844 11.890625 2.339844 11.828125 2.335938 C 11.773438 2.332031 11.722656 2.328125 11.667969 2.328125 C 11.640625 2.324219 11.613281 2.324219 11.585938 2.320312 C 11.464844 2.316406 11.363281 2.304688 11.25 2.265625 C 11.210938 2.152344 11.207031 2.074219 11.207031 1.953125 C 11.207031 1.917969 11.207031 1.886719 11.207031 1.851562 C 11.210938 1.757812 11.210938 1.757812 11.25 1.640625 C 11.371094 1.601562 11.457031 1.59375 11.582031 1.59375 C 11.625 1.59375 11.667969 1.589844 11.710938 1.589844 C 11.800781 1.589844 11.890625 1.585938 11.976562 1.585938 C 12.21875 1.578125 12.40625 1.566406 12.617188 1.445312 C 12.714844 1.300781 12.726562 1.183594 12.695312 1.015625 C 12.589844 0.878906 12.511719 0.8125 12.34375 0.78125 C 12.277344 0.777344 12.214844 0.777344 12.148438 0.777344 C 12.109375 0.777344 12.070312 0.773438 12.03125 0.773438 C 11.964844 0.773438 11.964844 0.773438 11.898438 0.773438 C 11.832031 0.773438 11.832031 0.773438 11.761719 0.773438 C 11.613281 0.773438 11.460938 0.773438 11.3125 0.773438 C 11.234375 0.773438 11.15625 0.773438 11.078125 0.773438 C 10.863281 0.773438 10.644531 0.773438 10.429688 0.773438 C 10.148438 0.773438 9.867188 0.769531 9.585938 0.769531 C 9.371094 0.769531 9.152344 0.769531 8.9375 0.769531 C 8.808594 0.769531 8.679688 0.769531 8.546875 0.769531 C 8.402344 0.765625 8.257812 0.765625 8.113281 0.765625 C 8.074219 0.765625 8.03125 0.765625 7.984375 0.765625 C 7.753906 0.765625 7.585938 0.78125 7.382812 0.898438 Z M 10.425781 12.996094 C 9.839844 13.285156 9.230469 13.496094 8.59375 13.632812 C 8.5625 13.640625 8.535156 13.644531 8.503906 13.652344 C 7.300781 13.898438 5.988281 13.792969 4.820312 13.4375 C 4.691406 13.394531 4.691406 13.394531 4.570312 13.398438 C 4.554688 13.429688 4.539062 13.457031 4.519531 13.488281 C 4.246094 13.988281 3.96875 14.492188 3.6875 14.992188 C 3.667969 15.027344 3.644531 15.0625 3.625 15.097656 C 3.539062 15.25 3.453125 15.402344 3.363281 15.558594 C 3.289062 15.6875 3.214844 15.820312 3.140625 15.949219 C 3.109375 16.007812 3.109375 16.007812 3.074219 16.070312 C 2.78125 16.585938 2.601562 17.074219 2.722656 17.671875 C 2.886719 18.246094 3.199219 18.679688 3.710938 18.984375 C 4.308594 19.300781 5.03125 19.230469 5.683594 19.230469 C 5.789062 19.230469 5.894531 19.230469 6 19.230469 C 6.25 19.230469 6.503906 19.230469 6.757812 19.230469 C 6.964844 19.230469 7.171875 19.230469 7.378906 19.230469 C 7.40625 19.230469 7.4375 19.230469 7.46875 19.230469 C 7.527344 19.230469 7.585938 19.230469 7.648438 19.230469 C 8.207031 19.230469 8.769531 19.230469 9.328125 19.230469 C 9.808594 19.226562 10.289062 19.230469 10.765625 19.230469 C 11.324219 19.230469 11.882812 19.230469 12.441406 19.230469 C 12.503906 19.230469 12.5625 19.230469 12.621094 19.230469 C 12.652344 19.230469 12.679688 19.230469 12.710938 19.230469 C 12.917969 19.230469 13.121094 19.230469 13.328125 19.230469 C 13.578125 19.230469 13.832031 19.230469 14.082031 19.230469 C 14.210938 19.230469 14.335938 19.230469 14.464844 19.230469 C 15.738281 19.238281 15.738281 19.238281 16.796875 18.59375 C 17.183594 18.132812 17.347656 17.628906 17.304688 17.03125 C 17.230469 16.382812 16.773438 15.773438 16.453125 15.21875 C 16.320312 14.988281 16.191406 14.753906 16.058594 14.523438 C 16.035156 14.480469 16.015625 14.441406 15.992188 14.398438 C 15.898438 14.230469 15.804688 14.0625 15.710938 13.898438 C 15.550781 13.613281 15.394531 13.328125 15.234375 13.046875 C 15.214844 13.007812 15.191406 12.972656 15.171875 12.933594 C 15.113281 12.828125 15.050781 12.722656 14.992188 12.621094 C 14.964844 12.574219 14.964844 12.574219 14.941406 12.527344 C 14.921875 12.496094 14.90625 12.46875 14.890625 12.441406 C 14.878906 12.414062 14.863281 12.390625 14.847656 12.367188 C 14.800781 12.292969 14.800781 12.292969 14.6875 12.226562 C 13.210938 11.984375 11.742188 12.339844 10.425781 12.996094 Z M 10.425781 12.996094 "/>
<path d="M 7.011719 16.851562 C 7.046875 16.851562 7.082031 16.847656 7.113281 16.847656 C 7.226562 16.847656 7.339844 16.847656 7.453125 16.851562 C 7.53125 16.847656 7.613281 16.847656 7.695312 16.847656 C 7.910156 16.847656 8.128906 16.847656 8.347656 16.847656 C 8.578125 16.847656 8.808594 16.847656 9.035156 16.847656 C 9.421875 16.847656 9.804688 16.847656 10.1875 16.847656 C 10.632812 16.851562 11.078125 16.851562 11.519531 16.847656 C 11.902344 16.847656 12.285156 16.847656 12.664062 16.847656 C 12.894531 16.847656 13.121094 16.847656 13.347656 16.847656 C 13.5625 16.847656 13.777344 16.847656 13.992188 16.847656 C 14.070312 16.847656 14.148438 16.847656 14.226562 16.847656 C 14.335938 16.847656 14.441406 16.847656 14.550781 16.851562 C 14.582031 16.851562 14.613281 16.847656 14.644531 16.847656 C 14.800781 16.851562 14.875 16.867188 15 16.96875 C 15.085938 17.078125 15.105469 17.128906 15.101562 17.265625 C 15.101562 17.296875 15.105469 17.328125 15.105469 17.363281 C 15.066406 17.507812 15 17.5625 14.882812 17.65625 C 14.765625 17.675781 14.667969 17.683594 14.550781 17.679688 C 14.515625 17.679688 14.480469 17.683594 14.449219 17.683594 C 14.335938 17.683594 14.222656 17.683594 14.109375 17.679688 C 14.03125 17.683594 13.949219 17.683594 13.867188 17.683594 C 13.652344 17.683594 13.433594 17.683594 13.214844 17.683594 C 12.984375 17.683594 12.753906 17.683594 12.527344 17.683594 C 12.140625 17.683594 11.757812 17.683594 11.375 17.683594 C 10.929688 17.679688 10.484375 17.679688 10.042969 17.683594 C 9.660156 17.683594 9.277344 17.683594 8.898438 17.683594 C 8.667969 17.683594 8.441406 17.683594 8.214844 17.683594 C 8 17.683594 7.785156 17.683594 7.570312 17.683594 C 7.492188 17.683594 7.414062 17.683594 7.335938 17.683594 C 7.226562 17.683594 7.121094 17.683594 7.011719 17.679688 C 6.980469 17.679688 6.949219 17.683594 6.917969 17.683594 C 6.761719 17.679688 6.6875 17.664062 6.5625 17.5625 C 6.476562 17.453125 6.457031 17.402344 6.460938 17.265625 C 6.460938 17.234375 6.457031 17.199219 6.457031 17.167969 C 6.535156 16.882812 6.753906 16.847656 7.011719 16.851562 Z M 7.011719 16.851562 "/>
<path d="M 8.972656 9.148438 C 9.027344 9.183594 9.085938 9.21875 9.140625 9.257812 C 9.195312 9.289062 9.195312 9.289062 9.25 9.324219 C 9.527344 9.609375 9.621094 9.914062 9.625 10.300781 C 9.621094 10.550781 9.554688 10.730469 9.414062 10.9375 C 9.390625 10.972656 9.371094 11.007812 9.347656 11.046875 C 9.0625 11.324219 8.757812 11.417969 8.371094 11.421875 C 8.121094 11.417969 7.941406 11.351562 7.734375 11.210938 C 7.699219 11.1875 7.664062 11.167969 7.625 11.144531 C 7.347656 10.859375 7.253906 10.554688 7.25 10.167969 C 7.253906 9.917969 7.320312 9.738281 7.460938 9.53125 C 7.484375 9.496094 7.503906 9.460938 7.527344 9.421875 C 7.902344 9.058594 8.488281 8.914062 8.972656 9.148438 Z M 8.085938 10.078125 C 8.058594 10.1875 8.058594 10.28125 8.085938 10.390625 C 8.164062 10.507812 8.21875 10.570312 8.355469 10.605469 C 8.511719 10.617188 8.582031 10.59375 8.710938 10.507812 C 8.796875 10.378906 8.820312 10.308594 8.808594 10.152344 C 8.773438 10.015625 8.710938 9.960938 8.59375 9.882812 C 8.367188 9.828125 8.21875 9.878906 8.085938 10.078125 Z M 8.085938 10.078125 "/>
<path d="M 5.507812 16.875 C 5.628906 16.949219 5.628906 16.949219 5.703125 17.070312 C 5.742188 17.265625 5.734375 17.410156 5.628906 17.582031 C 5.457031 17.6875 5.3125 17.695312 5.117188 17.65625 C 4.996094 17.582031 4.996094 17.582031 4.921875 17.460938 C 4.882812 17.265625 4.890625 17.121094 4.996094 16.949219 C 5.167969 16.84375 5.3125 16.835938 5.507812 16.875 Z M 5.507812 16.875 "/>
<path d="M 11.757812 9.0625 C 11.878906 9.136719 11.878906 9.136719 11.953125 9.257812 C 11.992188 9.453125 11.984375 9.597656 11.878906 9.769531 C 11.707031 9.875 11.5625 9.882812 11.367188 9.84375 C 11.246094 9.769531 11.246094 9.769531 11.171875 9.648438 C 11.132812 9.453125 11.140625 9.308594 11.246094 9.136719 C 11.417969 9.03125 11.5625 9.023438 11.757812 9.0625 Z M 11.757812 9.0625 "/>
<path d="M 10.195312 6.71875 C 10.316406 6.792969 10.316406 6.792969 10.390625 6.914062 C 10.429688 7.109375 10.421875 7.253906 10.316406 7.425781 C 10.144531 7.53125 10 7.539062 9.804688 7.5 C 9.683594 7.425781 9.683594 7.425781 9.609375 7.304688 C 9.570312 7.109375 9.578125 6.964844 9.683594 6.792969 C 9.855469 6.6875 10 6.679688 10.195312 6.71875 Z M 10.195312 6.71875 "/>
</svg>